<svg width="140" height="104" xml:space="preserve" style="enable-background:new 0 0 1024 1024;" viewBox="0 0 1024 1024" y="0px" x="0px" xmlns:xlink="http://www.w3.org/1999/xlink" xmlns="http://www.w3.org/2000/svg" id="图层_1" version="1.1">
<style type="text/css">
	.st0{fill:none;stroke:#FFD986;stroke-width:2;}
	.st1{fill:none;stroke:#FFBA49;stroke-width:2;}
	.st2{fill:none;stroke:#AE7A16;stroke-width:2;}
	.st3{fill:none;stroke:#88691B;stroke-width:2;}
	.st4{fill:none;stroke:#FFE193;stroke-width:2;}
	.st5{fill:none;stroke:#371F08;stroke-width:2;}
	.st6{fill:none;stroke:#875F3B;stroke-width:2;}
	.st7{fill:none;stroke:#877E78;stroke-width:2;}
	.st8{fill:none;stroke:#878685;stroke-width:2;}
	.st9{fill:none;stroke:#AE7036;stroke-width:2;}
	.st10{fill:none;stroke:#FECFA6;stroke-width:2;}
	.st11{fill:none;stroke:#AE8F73;stroke-width:2;}
	.st12{fill:none;stroke:#FEF6F0;stroke-width:2;}
	.st13{fill:none;stroke:#AE9780;stroke-width:2;}
	.st14{fill:none;stroke:#FED7B3;stroke-width:2;}
	.st15{fill:#FFC428;}
	.st16{fill:#100E0D;}
	.st17{fill:#FEAF69;}
	.st18{fill:#5D3003;}
	.st19{fill:#FEEEE3;}
	.st20{fill:#FEFEFD;}
</style>
<g>
	<g>
		<path d="M835.1,1024c10-63.4,17.1-123.6,21.5-180.5c1.1-14.5-1.1-27.5-7-41.9
			c-28.4-68.1-56.4-136.3-84.1-204.5" class="st0"></path>
		<path d="M765.4,597.2l-1.2-7" class="st1"></path>
		<path d="M764.2,590.2c16.5-4.6,30.7-12.6,42.6-24.1c0.3-0.3,0.2-0.4-0.1-0.2
			c-19.5,6.5-37.5,5.5-54-3" class="st2"></path>
		<path d="M752.6,562.9c32.6,4.3,63.6-3.8,79.2-35c0.2-0.1,0.3-0.3,0.1-0.7
			c-0.1-0.2-0.2-0.2-0.4-0.2c-0.1,0-0.1,0.1-0.1,0.1c-7,12.5-23.3,29.5-38.3,29.6c-1,0-1-0.2-0.2-0.7c20.7-11.6,36.5-27.9,47.4-48.9
			c0.2-0.4,0.1-0.8-0.3-1c-0.3-0.2-0.7-0.1-0.9,0.1c-17.8,17.2-44.7,22.8-53-8.5c-9.3-34.8-4-76.7-0.9-112.3
			c0.2-2.4,0.8-4.1,1.8-5.1c13.6-13.7,21.7-29.8,24.2-48.4c8.4-62.7-24.9-122.4-66.6-166.3c-12.3-13-21.7-31.6-31.1-43.6
			C662.3,56.5,582.2,7.6,498,10.6c-19.1,0.7-35.2,8.1-48.3,22.2c-0.5,0.5-1,0.8-1.7,0.9c-43.6,5.3-85,25.6-113.8,58.9
			c-15,17.3-29.6,43.5-39.1,65.1c-10.3,23.4-20.6,46.7-30.9,70.1c-12.6,28.7-24.2,55-54,69c-19.6,9.2-36.6,21.6-50.9,37.1
			C126,370.1,93,444,141.1,483.4c18.3,14.9,36.5,29.8,54.7,44.8c12.7,10.5,25.4,26.3,24.4,43.5c-1.1,18.2-12.7,29.8-29.5,36.3
			c-0.7,0.3-0.7,0.4,0.1,0.5c1.2,0.1,2.7-0.1,4.7-0.5c16.6-3,27.9-6.2,37-21.3c0.5-0.9,1-0.9,1.5,0c13.2,21.6,32.9,34.7,58.9,39.2" class="st3"></path>
		<path d="M293,625.9c-8.7,12.3-17.7,23.1-26.9,32.3
			c-45.5,45.4-95.4,87.6-137.5,142C78.7,864.9,46.8,942,40.2,1024" class="st4"></path>
		<path d="M752.6,562.9c-3.3,1.5-6.5,4.2-9.8,8.1" class="st5"></path>
		<path d="M742.8,571c-3.9-5-6.7-11.1-8.6-18.1c-3.6-13.6-15.2-10.6-22.1-20.5
			c-6.1-8.7-11.6-17.7-16.6-27c-0.2-0.4-0.7-0.5-1.1-0.3c-0.1,0.1-0.3,0.2-0.3,0.3c-5.9,10.6-11.8,21.2-17.7,31.7
			c-1.6,2.9-2.5,5.3-2.8,7.3c-0.5,3.8,0.3,6.5,2.5,7.9" class="st6"></path>
		<path d="M676.1,552.4c0.3,0.1,0.6,0.2,0.9,0.3" class="st5"></path>
		<path d="M677.1,552.6c-9.9,4.2-21.6,8-29.6,15.4c-11.1,10.2-21.7,20.8-32,31.8
			c-5.4,5.8-9.5,8.6-16.5,11.1c-23.9,8.7-43.6,19.8-65.1,33.2c-0.6,0.4-1.5,0.2-1.9-0.4c-0.3-0.4-0.3-0.9-0.1-1.3
			c1.6-3.2,2.3-6.5,2.1-10c0-0.6-0.3-1.2-0.6-1.7c-16.2-21.3-33.5-42-51.9-62" class="st6"></path>
		<path d="M481.4,568.8c28.8,18.1,54,31.7,75.6,40.8c14.6,6.1,28.7,5.9,42.3-0.6
			c5.3-2.6,11.9-7.7,19.7-15.3c30.3-29.9,70.1-63.9,79-107.8" class="st7"></path>
		<path d="M698,485.9c1.1-1.9,1.7-3.4,1.8-4.6c0.1-0.8-0.3-1.2-1-1.2l-15-1.5" class="st6"></path>
		<path d="M683.7,478.6c-18.3-5.3-36.9-18.6-43.3-37.2" class="st7"></path>
		<path d="M640.4,441.4c-2-11-3.6-22.1-4.9-33.4c-0.1-0.8-1-2.2-2.8-4.4" class="st3"></path>
		<path d="M632.7,403.6c-10.1-15.1-26.7,1.1-37.5,10.2c-0.5,0.4-0.8,1-0.9,1.6
			c-12.5,67.3-92.7,96.1-137.7,39.6" class="st7"></path>
		<path d="M456.6,455c-12.4-18.7-15.9-39-10.4-60.8" class="st6"></path>
		<path d="M446.1,394.2l2.4-14c0.1-0.6-0.2-1.3-0.8-1.6c-9.4-4-19.3-6.7-29.6-8.1" class="st7"></path>
		<path d="M418,370.6c-1.7-1-3.4-0.7-5.1,0.9c-10.4,10.2-11.8,21-13.9,36.8
			c-3.7,26.8,0.6,52.3,12.7,76.6" class="st6"></path>
		<path d="M411.8,485l15.4,33.4" class="st7"></path>
		<path d="M427.1,518.4c-1-1.9-1.9-3.6-2.9-5.1c-19.4-29.1-31.5-68-36.6-102.3
			c0-0.3-0.3-0.5-0.6-0.4c-0.1,0-0.2,0.1-0.3,0.2c-11.8,15.7-26.6,27.7-44.6,35.8c-0.5,0.2-0.7,0.6-0.4,1.1
			c10.7,20.5,27.6,29.4,50.5,22.7c2.9-0.9,4.9,0.2,5.9,3c3.8,10.9,8.7,21.2,14.8,30.9c0.3,0.5,0.2,0.7-0.4,0.7
			c-0.4,0-0.7-0.2-0.9-0.6c-2.7-5.4-7.5-10.7-10.5-16c-0.3-0.5-0.9-0.7-1.4-0.4c-0.3,0.1-0.5,0.4-0.5,0.7
			c-3.3,14.2-7.1,28.3-11.4,42.3c-2,6.5,8.9,25.8,9.6,30.5c1.7,11.3,1,21.6-2.1,31" class="st6"></path>
		<path d="M395.3,592.6c-6.8,14.9-16.9,25.6-30.2,32c-1.1,0.5-3,2-5.8,4.3
			c-0.1,0.1-0.2,0-0.2,0c0,0,0,0,0,0c0,0-0.1-0.1-0.1-0.1c-0.1-0.2-0.1-0.4,0.1-0.5c16.2-18.5,26.7-50.3,8.3-70.7
			c-0.2-0.2-0.5-0.2-0.7,0c-0.1,0.1-0.2,0.3-0.1,0.5c5.5,17.5-2.8,37.2-16,47.9c-0.1,0-0.1,0-0.2,0c0,0-0.1,0-0.1,0
			c-0.1-0.1-0.2-0.1-0.1-0.3c12.2-12,16.9-26.1,14.4-42.3" class="st8"></path>
		<path d="M364.6,563.4c-3.8-7.5-9.1-12.2-15.8-14c-0.7-0.2-1.4,0.1-1.8,0.6
			c-8.6,10.5-16.9,22.3-24.9,35.4" class="st3"></path>
		<path d="M322,585.5l-29,40.4" class="st8"></path>
		<path d="M600.9,109c-38.5-32.8-83-52.4-133.5-58.6c-0.5-0.1-0.9,0-1.3,0.2
			c-0.5,0.3-0.5,0.5,0.1,0.6c50.9,10.9,96.7,28.2,136.2,62.7c2.4,2.1,4.2,6.7,9,7c0.3,0,0.6-0.2,0.6-0.5c0-0.2,0-0.3-0.1-0.4
			C608.3,115.8,604.6,112.2,600.9,109" class="st3"></path>
		<path d="M514.4,65.9c-17.2-5.5-17.6-4.6-1.1,2.6c23.7,10.3,47,31.2,60.6,54.6
			c0.3,0.6,0.8,0.8,1.4,0.6c9.1-2.7,18.3-4,27.7-3.7c1.9,0.1,2.2-0.6,0.8-1.9C579.2,93.5,547,76.3,514.4,65.9" class="st3"></path>
		<path d="M564.5,203.6c-16.5,38.3-41.8,67.2-75.2,92.3c-0.7,0.5-0.6,0.8,0.3,0.8
			c20.7,0.8,48.9,4.7,68.1,14.6" class="st7"></path>
		<path d="M557.7,311.3l-0.8,1.8c-0.2,0.5-0.6,0.7-1.1,0.6l-3-0.3
			c-0.5,0-1,0.3-1.1,0.9c0,0.3,0.1,0.5,0.2,0.7c3,3.9,6.7,6.8,11.2,8.8c0.6,0.3,1,0.9,1,1.6c-0.1,0.6-0.3,1.1-0.7,1.5" class="st5"></path>
		<path d="M563.4,327c-27.9-8.1-62.7-16.7-92.5-14.6" class="st7"></path>
		<path d="M470.9,312.4c0.3-1.7,1.6-3.1,4-4.1c0.6-0.3,0.6-0.5,0-0.7
			c-0.4-0.1-0.8-0.1-1.2,0.1c-4.1,1.6-7.4,3.6-10,6" class="st5"></path>
		<path d="M463.6,313.6c-10.8,3.1-16,7.5-22.3,17.5c-5.3,8.6-11,16.9-16.9,25
			c-0.4,0.6-0.3,1,0.3,1.3c0.9,0.5,1.7,0.7,2.5,0.8" class="st6"></path>
		<path d="M427.2,358.3c12.1,2.4,21.4,3.6,27.8,3.7c3.4,0.1,8-3.5,10.8-4.6
			c10.9-4.4,22.2-7.9,33.6-10.6c41.3-9.6,82.8,8.3,94.7,51.2c0.2,0.6,0.5,1.1,1,1.5c5.8,4.7,12.5-3.4,15.2-8.3
			c0.4-0.7,0.9-1.2,1.6-1.5c6.2-2.8,12.6-3.1,19.2-0.9c0.4,0.1,0.7,0.3,0.9,0.6l5,6.3c0.4,0.5,1.2,0.6,1.7,0.2
			c0.2-0.1,0.3-0.3,0.4-0.5c10-21.8,26-37.1,48-46" class="st7"></path>
		<path d="M687,349.7c9.7-3.1,20.1-4.7,31.3-4.7c0.8,0,1.4-0.6,1.4-1.4
			c0,0,0-0.1,0-0.1l-2.1-19.5c-0.1-1.3-0.9-1.9-2.2-1.8l-12,1" class="st6"></path>
		<path d="M703.3,323l-41.6,8.5" class="st7"></path>
		<path d="M661.8,331.5l19.1-16.2c0.5-0.4,0.7-1,0.6-1.7L681,311" class="st5"></path>
		<path d="M681,311c9.9-3.2,20-5.2,30.2-6.2c0.5-0.1,0.9-0.5,0.8-1c0,0,0-0.1,0-0.1
			c-6.6-24.5-14.9-49.8-29.7-70.6c-13.5-19.1-28.7-35.2-45.7-48.3" class="st7"></path>
		<path d="M636.6,184.8c-7.3-7.4-14.8-13.6-22.4-18.6" class="st6"></path>
		<path d="M614.2,166.2c0.4-0.6,0.8-0.9,1.2-0.8" class="st5"></path>
		<path d="M615.4,165.4c28.4,19.8,52.9,43.4,73.7,70.7c0.1,0.2,0.3,0.2,0.3,0
			c0-0.1,0-0.2,0-0.3c0-0.2-0.1-0.3-0.2-0.5c-14.7-21.9-33.9-42.2-57.7-60.9c-8.7-6.8-16.4-11.3-23.1-13.5" class="st3"></path>
		<path d="M608.5,161c-9.9-4.7-20.2-8.4-31-11c-1-0.2-1.6,0.1-1.7,1.2
			c-2.3,17.6-6,35.1-11.3,52.5" class="st6"></path>
		<path d="M608.5,161c0.6,1.1,1.4,1.9,2.3,2.4" class="st1"></path>
		<path d="M610.8,163.4l3.4,2.8" class="st9"></path>
		<path d="M636.6,184.8c-15-5.9-29.4-8.3-43.2-7.3c-11.1,0.8-20.3,26.5-28.9,26" class="st10"></path>
		<path d="M681,311c-12.5,5-22.8,12.8-30.9,23.5c-0.5,0.7-0.3,1,0.5,0.9
			c4.5-0.5,8.2-1.8,11.2-3.9" class="st11"></path>
		<path d="M703.3,323c0.3,6.6-1.9,12.2-6.5,16.9c-3.5,3.5-8.7,2.8-9.8,9.8" class="st10"></path>
		<path d="M427.2,358.3c13.6-14,24.8-30.5,38.6-44.8" class="st10"></path>
		<path d="M465.8,313.5c2.1,0.1,3.8-0.3,5.1-1.1" class="st11"></path>
		<path d="M563.4,327l10.1,3.6" class="st11"></path>
		<path d="M573.4,330.6l4.1-0.2" class="st10"></path>
		<path d="M577.5,330.4l2.8,2.6c0.8,0.8,1,0.6,0.6-0.4
			c-4.5-10.8-12.2-17.9-23.3-21.2" class="st11"></path>
		<path d="M615.4,165.4c-1.9-1.8-3.4-2.5-4.6-2" class="st2"></path>
		<path d="M465.8,313.5l-2.2,0.2" class="st9"></path>
		<path d="M577.5,330.4c-4.2-4.1-8.2-8.4-12-12.9c-0.8-0.9-1.7-1.4-2.7-1.5
			c-0.5,0-1,0.4-1,0.9c0,0.3,0.1,0.6,0.4,0.8c4.5,3.5,8.2,7.8,11.2,12.9" class="st9"></path>
		<path d="M705.1,258c0.3,1.5,0.7,2.5,1.3,3.1c0.4,0.4,0.6,0.3,0.6-0.3
			c0-0.9-0.3-1.9-0.9-3" class="st5"></path>
		<path d="M706.1,257.9c-13.7-37.4-35.3-72.1-70.1-92.8c-1.9-1.1-2-1-0.3,0.5
			c28.4,24.2,55.8,58.6,69.4,92.5" class="st6"></path>
		<path d="M706.1,257.9c-0.4,0.1-0.7,0.2-1,0.1" class="st9"></path>
		<path d="M786.2,299.7c1.9,20.6,0.9,41,0.3,58.7c0,1.1,0.3,1.2,0.9,0.4
			c42.4-53.9,13.7-129-32.3-169c-0.2-0.2-0.6-0.2-0.8,0c-0.2,0.2-0.2,0.4-0.1,0.6C771.2,224.4,782.8,261.8,786.2,299.7" class="st3"></path>
		<path d="M564.3,194.2c-14.5,30.1-33.7,56.9-57.6,80.3c-0.3,0.3-0.3,0.6,0,0.9
			c0.2,0.3,0.5,0.3,0.8,0.1c24.7-19.3,48.6-50.1,57.7-81C566.3,190.8,566,190.7,564.3,194.2" class="st8"></path>
		<path d="M195.5,307.6c-20.5,10.6-36.2,27.5-49.3,46.1c-0.1,0.1,0,0.2,0.1,0.3
			c0.1,0,0.2,0,0.2,0c23.5-20.1,50.4-37.9,73.1-56.7c0.3-0.2,0.3-0.7,0-0.9c-0.2-0.2-0.4-0.2-0.7-0.2
			C210.9,299.9,203.1,303.7,195.5,307.6" class="st3"></path>
		<path d="M127.9,399.9c-6.2,23.6-1.4,44,14.3,61.4c0.3,0.4,0.9,0.4,1.2,0
			c0.2-0.2,0.3-0.4,0.3-0.6c0.9-27.4,15-52.5,33.2-71.3c19.3-20,37.2-40.6,53.7-61.7c1.1-1.4,0.8-1.8-0.9-1.2
			c-22.3,8.4-43.1,17.8-62.5,28C149.1,364.1,133.2,379.5,127.9,399.9" class="st3"></path>
		<path d="M531.1,358.9c4.1,6.4,9.2,11.3,15.2,14.8" class="st5"></path>
		<path d="M546.3,373.6c3.8,5.5,6.1,11.7,6.9,18.7" class="st7"></path>
		<path d="M553.3,392.3c-6.2-11.9-15.1-20.4-26.8-25.5c-0.7-0.3-1.1-0.1-1.1,0.7
			c0.1,5.9-0.8,11.5-2.8,16.6" class="st6"></path>
		<path d="M522.6,384.2c-1.1,6.1-6.7,3.5-9.9,2" class="st8"></path>
		<path d="M512.7,386.1c-2.3-1.8-5.4-2.6-9.3-2.3" class="st3"></path>
		<path d="M503.4,383.8l2.3-3.2c0.4-0.6,0.5-1.3,0.2-2c-0.8-1.5-2-2.5-3.6-3
			c-1.6-0.4-2.9,0-4,1.2c-1.9,2.1-1.8,4.3,0.1,6.7" class="st8"></path>
		<path d="M498.3,383.6c-4.7,0.8-11.2,0.9-13.7,5.6c-0.3,0.6-0.2,1.3,0.2,1.8
			l7.7,8.7" class="st3"></path>
		<path d="M492.4,399.7c-5.2-2.3-9.2-6.5-12-12.7" class="st8"></path>
		<path d="M480.4,387l-2.6-13.9c-0.1-0.8-0.6-1-1.3-0.7c-4.5,1.9-7.5,5.1-9.2,9.4" class="st6"></path>
		<path d="M467.3,381.9l-4.3,4.4" class="st5"></path>
		<path d="M463,386.3l-6.2,9.5" class="st6"></path>
		<path d="M456.8,395.8c-5.9,14.7-6.2,28.7-0.8,41.7c19.1,46.5,81.3,56.1,113.1,16" class="st7"></path>
		<path d="M569.1,453.5c10.1-10.7,15.6-24.9,16.4-42.4" class="st3"></path>
		<path d="M585.6,411.1c1.8-13.5-2.7-25.9-13.4-37.2
			c-13.7-14.3-30.4-20.9-50.1-19.8c-2.8,0.2-2.9,0.7-0.2,1.6l9.3,3.2" class="st7"></path>
		<path d="M585.6,411.1c-10.4,8.9-17.6,19.8-21.6,32.9c-1.7,5.7,0,8.9,5.2,9.5" class="st0"></path>
		<path d="M456.8,395.8c2.3,2.7,4.7,3.9,7.4,3.5" class="st10"></path>
		<path d="M464.2,399.2l4.6-1.9c0.7-0.3,1.5-0.2,2.1,0.3l5.3,4.7
			c0.6,0.5,0.5,1-0.1,1.3l-0.6,0.4c-1,0.6-0.9,0.9,0.2,0.8c3.6-0.1,6.8,1.1,9.4,3.7c0.4,0.4,0.6,0.9,0.4,1.4l-1.2,3.8
			c-0.1,0.5,0.2,1,0.6,1.1c0.4,0.1,0.8-0.1,1-0.4l1.8-3.7c0.3-0.7,0.9-0.9,1.6-0.6c4.3,2,8.3,2.4,11.9,1" class="st11"></path>
		<path d="M501.3,411.2c14.3,1.2,28.2-2.4,41.6-10.8c2.5-1.5,3.7-3.5,3.7-5.8" class="st12"></path>
		<path d="M546.6,394.6c2.5,1,4.8,0.3,6.7-2.3" class="st10"></path>
		<path d="M546.3,373.6c1.3-1.1,2.9-0.7,4.8,1.2c1.9,1.9,3.8,3.4,5.7,4.5
			c0.2,0.1,0.5,0.1,0.7-0.2c0.1-0.2,0.1-0.4,0-0.6c-7-8.6-15.7-15.1-26.4-19.8" class="st11"></path>
		<path d="M471.8,393.8c5.7,10,15.5,15.8,29.5,17.4" class="st13"></path>
		<path d="M464.2,399.2c0.7-1.6,2-2.7,3.8-3.4c0.8-0.3,0.9-0.8,0.5-1.4l-5.5-8.1" class="st9"></path>
		<path d="M546.6,394.6l-24-10.5" class="st14"></path>
		<path d="M480.4,387c-3,1.3-5.9,3.5-8.6,6.7" class="st14"></path>
		<path d="M471.8,393.8c-2.4-3.4-3.9-7.4-4.5-11.9" class="st9"></path>
		<path d="M512.7,386.1c-2.9,0.9-4.5,2.5-4.8,4.9c-0.1,0.6,0.3,1.2,0.8,1.5l4.2,2.1
			c1,0.5,1.3,1.6,0.9,2.6c-0.2,0.4-0.5,0.7-0.9,0.9c-7.3,3.4-14.1,4-20.4,1.7" class="st4"></path>
		<path d="M503.4,383.8c-1.8,0.3-3.5,0.2-5.1-0.2" class="st4"></path>
		<path d="M714.5,366l-10.9-4.1c-0.4-0.1-0.8,0.1-0.9,0.4c-0.1,0.3,0,0.6,0.2,0.7
			l12.5,10.6c0.4,0.3,1,0.3,1.3-0.1c0.1-0.1,0.2-0.3,0.2-0.5l1.9-18c0-0.5-0.2-0.7-0.6-0.8c-8.1-0.9-16,0-23.6,2.8
			c-0.3,0.1-0.5,0.3-0.4,0.6c0.1,0.3,0.3,0.5,0.6,0.4c7.8-0.8,14.7,1.2,20.7,6.2c0.4,0.4,0.5,1,0.1,1.4
			C715.3,366,714.9,366.1,714.5,366" class="st6"></path>
		<path d="M471.8,358.7c-0.2-0.5-2.4,0.2-4.9,1.5c0,0,0,0,0,0
			c-2.4,1.3-4.2,2.7-4,3.1l0,0c0.2,0.5,2.4-0.2,4.9-1.5c0,0,0,0,0,0C470.2,360.6,472,359.2,471.8,358.7L471.8,358.7" class="st6"></path>
		<path d="M742,462.4c18.2-16,26.8-35.8,25.9-59.2c-0.8-19.2-8.7-33.4-25.3-42.6
			c-0.1-0.1-0.2-0.1-0.3-0.1c-0.1,0.1-0.2,0.2-0.3,0.4c0,0.1,0,0.2,0.1,0.3c36,26.3,26.7,76.7-3.4,103.5c-0.5,0.5-0.4,0.6,0.2,0.4
			c0.7-0.2,1.2-0.5,1.7-1.1C741.4,463,741.9,462.5,742,462.4" class="st3"></path>
		<path d="M676.7,382.1l-3.6,7.3c-0.3,0.7-0.9,1-1.7,0.9l-9.4-1.4
			c-0.4-0.1-0.6-0.3-0.6-0.7c0.1-1.8-0.6-3-2.1-3.8c-1.8-0.9-4-0.2-4.9,1.6c-0.1,0.3-0.2,0.6-0.3,0.9c-0.8,4.3,0,5.7,2.4,4.1" class="st8"></path>
		<path d="M656.6,391.1c-2.2,4.5-8.2,1-7.1,9.3" class="st3"></path>
		<path d="M649.5,400.5c-0.7,1.1-1.1,1.5-1.3,1.2" class="st5"></path>
		<path d="M648.2,401.7l-3.1,10.6" class="st8"></path>
		<path d="M645,412.3c-4.6,35.4,21.8,62.4,57.2,59.4c0.7-0.1,1-0.4,1.2-1l5-22.8" class="st7"></path>
		<path d="M708.4,447.8c3.7-19.2,6.2-38.5,7.3-57.8c0.2-2.8,1.7-7.5-1.9-9.2
			c-0.8-0.4-1.7-0.1-2.2,0.6l-9.4,12.5c-0.8,1.1-0.7,2,0.5,2.7l3.3,2c0.2,0.1,0.4,0.4,0.2,0.7s-0.4,0.4-0.7,0.2l-4.2-1.7
			c-1.5-0.6-3.2,0.1-3.9,1.6c-0.4,0.9-0.3,2,0.3,2.8l0.9,1.3" class="st6"></path>
		<path d="M698.7,403.6c-3.4,0.3-5.8,1.4-7.2,3.2c-0.4,0.5-0.9,0.8-1.5,0.9
			l-11.5,2.4" class="st7"></path>
		<path d="M678.5,410.1c8.2-2.9,15.1-8,20.6-15.4" class="st8"></path>
		<path d="M699,394.8l5.8-12.1c0.3-0.6,0.3-1.2,0-1.8c-4.4-8.8-13.6-16.9-24.1-14.3
			c-1.3,0.3-2.3,1.4-2.5,2.8l-1.5,12.8" class="st6"></path>
		<path d="M699,394.8l-0.6-6.5c-0.3-3-2.7-5.3-5.6-5.4l-16.1-0.7" class="st14"></path>
		<path d="M678.5,410.1c-10.8,2.2-21.9,2.9-33.4,2.2" class="st12"></path>
		<path d="M648.2,401.7c2,1.4,4,2.2,6.1,2.4" class="st13"></path>
		<path d="M654.2,404c6.4,1,11.9-1.1,16.6-6.5c0.2-0.2,0.2-0.6-0.1-0.8
			c0,0-0.1-0.1-0.2-0.1l-13.9-5.5" class="st4"></path>
		<path d="M654.2,404l-4.7-3.6" class="st2"></path>
		<path d="M708.4,447.8c0.1-16.5-1.1-30.1-3.4-40.8c-0.5-2.5-2.7-3.7-6.3-3.4" class="st10"></path>
		<path d="M758.2,398.1c-27.3,14.7-42.2,44.5-51.5,72.5c-0.2,0.6,0,0.8,0.6,0.7
			c36.3-5.7,57.6-35.5,53-72.2C760.1,397.8,759.4,397.5,758.2,398.1" class="st3"></path>
		<path d="M378.2,399.2l-33.2,31.7c-0.1,0.1,0,0.2,0,0.3c0,0,0.1,0,0.2,0
			c14.2-7.9,25.6-18.8,34.4-32.4c0.1-0.2,0.1-0.5-0.1-0.6c-0.1,0-0.1-0.1-0.2-0.1c-0.4-0.1-0.6,0.1-0.7,0.4
			C378.5,398.8,378.4,399,378.2,399.2" class="st6"></path>
		<path d="M243.6,463.4c-12,9.5-20.2,21.8-24.6,36.7" class="st5"></path>
		<path d="M219,500.1l-4.3,10.1c-0.2,0.6-0.2,1.2,0.2,1.7l8.5,11.1
			c0.6,0.8,1,0.7,1.2-0.3c13.1-63.5,85.3-95.4,139.6-119.2c0.6-0.3,0.6-0.5,0-0.6c-0.4-0.1-0.7-0.1-1.1,0.1
			c-23.7,9.6-50,21.3-77.2,32.1c-16.4,6.6-30.5,16-42.3,28.2" class="st3"></path>
		<path d="M219,500.1l24.6-36.7" class="st2"></path>
		<path d="M340.8,444.6c0.1,0.1,0.2,0.1,0.3,0c18.8-8.5,34.3-21.2,46.4-38.1
			c0.3-0.5,0.3-0.9-0.1-1.4c-0.4-0.5-0.8-0.6-1.3-0.1c-13.2,14.5-28.9,25.5-47.2,32.8c-1.4,0.6-2.1,2.2-1.5,3.6
			c0.2,0.4,0.5,0.8,0.8,1.1L340.8,444.6" class="st6"></path>
		<path d="M153.8,443.6c0-0.4-0.3-0.6-0.7-0.6c-0.3,0-0.5,0.2-0.6,0.4
			c-3.7,12.5-2.5,24.4,3.6,35.8c0.2,0.5,0.7,0.7,1.1,0.5c0.5-0.2,0.7-0.7,0.5-1.1C154.6,467.1,153.2,455.5,153.8,443.6" class="st3"></path>
		<path d="M777.2,460.6c-1.8,15-5,33,6.2,44c0.2,0.2,0.6,0.2,0.8,0
			c0.1-0.1,0.2-0.4,0.1-0.6c-4.5-14.8-3.5-28.5-6.5-43.5c-0.1-0.2-0.2-0.3-0.4-0.3C777.3,460.4,777.2,460.5,777.2,460.6" class="st3"></path>
		<path d="M776.1,510.5l1.9-0.7c0.2-0.1,0.3-0.3,0.2-0.4c0,0,0,0,0,0l-2.1-5.6
			c-3.3-8.8-6.3-15.8-6.8-15.6l-0.8,0.3c-0.5,0.2,1.8,7.5,5,16.3c0,0,0,0,0,0l2.1,5.6C775.7,510.5,775.9,510.6,776.1,510.5
			C776.1,510.5,776.1,510.5,776.1,510.5" class="st3"></path>
		<path d="M378.3,605l-10.7,15.1c-0.3,0.4-0.2,0.9,0.2,1.1c0.3,0.2,0.6,0.2,0.9,0
			c12.3-7.5,20.9-17.7,25.6-30.6" class="st7"></path>
		<path d="M394.3,590.7c3.6-12.5,2.7-24.5-2.8-36.1c-0.4-0.9-0.7-0.8-1,0.1
			c-0.2,0.7-0.1,1.2,0.2,1.7c0.3,0.5,0.4,0.9,0.4,1.5c-0.5,16.1-4.8,31.8-12.8,47.1" class="st6"></path>
		<path d="M394.3,590.7c-1.1-0.3-1.9-0.4-2.6-0.2c-0.6,0.1-1.1,0.7-1.5,1.7
			c-2.5,6.4-6.4,10.6-11.9,12.8" class="st10"></path>
		<path d="M250.5,565.6c-1.4,11.7,40,36.7,43.1,21.6c0.1-0.5-0.1-0.8-0.7-0.8
			c-17.5-0.1-31.4-7.1-41.6-21C250.9,564.8,250.6,564.9,250.5,565.6" class="st3"></path>
		<path d="M261.7,588.3c4.9,4,20.9,13.5,26.8,8.1c0.4-0.4,0.5-1.1,0.1-1.5
			c-0.2-0.2-0.4-0.3-0.6-0.3c-15.2-2.3-27.2-9.6-36.2-21.8c-0.1-0.2-0.4-0.3-0.6-0.2s-0.3,0.4-0.2,0.6l0,0
			C253.2,579.2,256.8,584.2,261.7,588.3" class="st3"></path>
		<path d="M473.8,430.4c0-0.8-0.7-1.5-1.5-1.5l0,0c-0.8,0-1.5,0.7-1.5,1.5
			s0.7,1.5,1.5,1.5S473.8,431.2,473.8,430.4L473.8,430.4" class="st11"></path>
		<path d="M418,370.6c0.1,2.3-0.6,4.2-1.9,5.6c-1,1.1-0.9,2.8,0.2,3.7
			c0.1,0.1,0.2,0.2,0.3,0.2c9.2,5.9,19,10.6,29.4,14.1" class="st10"></path>
		<path d="M456.6,455c-5.8-3.7-10.7-10.4-14.9-20.1c-2.7-6.3-5.3-12.7-7.7-19.2
			c-3.3-8.8-16.5-15.9-24-21c-0.6-0.4-1.3-0.2-1.7,0.3c-0.1,0.1-0.1,0.2-0.2,0.3c-8.3,27.7-4.7,59.9,5.4,86.6
			c0.2,0.7,0.1,1.2-0.4,1.7l-1.3,1.3" class="st10"></path>
		<path d="M632.7,403.6c-5.6,14.5-4.2,27.4,4.4,38.8c0.4,0.5,0.9,0.6,1.4,0.3
			l1.9-1.2" class="st0"></path>
		<path d="M683.7,478.6c3.2,5.1,7.9,7.6,14.3,7.3" class="st10"></path>
		<path d="M481.4,568.8c-10.4-7.8-20.8-16.1-31-24.7c-11.2-9.5-19-18.1-23.3-25.7" class="st10"></path>
		<path d="M642.6,472.1l-15.2,19.2c-0.1,0.1-0.1,0.2,0,0.3l0,0
			c1.6,1.2,6.2-2,10.3-7.3l0.5-0.6c4.1-5.2,6.2-10.5,4.7-11.7l-0.1,0C642.8,472,642.7,472,642.6,472.1" class="st10"></path>
		<path d="M612.5,484.3c-2.2-1.6-4.7-2.2-7.4-2c-0.2,0-0.4,0.2-0.4,0.4
			c0,0.2,0.1,0.3,0.3,0.3l8,2.6c0.3,0.1,0.6-0.1,0.7-0.4c0-0.2,0-0.3-0.1-0.5c-0.1-0.2-0.3-0.3-0.5-0.3
			C612.8,484.5,612.6,484.4,612.5,484.3" class="st11"></path>
		<path d="M562.3,544l0.4,2.9c0,0.3,0.2,0.6,0.4,0.8c16.3,16.3,60.8,20.8,69.6-7.1
			c0.1-0.4,0.4-0.6,0.9-0.6h3.7c0.4,0,0.8-0.3,0.8-0.7c0-0.3-0.2-0.6-0.5-0.7l-7.4-2.7c-0.6-0.2-1.1-0.8-1.1-1.4
			c-0.3-3-1.3-5.7-3.1-8.1c-1.5-2.1-4.3-2.7-6.5-1.5c-7.1,3.9-14.5,4.3-22,1.4c-1.9-0.7-4-0.5-5.6,0.7
			c-10.8,7.4-22.6,12.7-35.3,15.7c-1.9,0.5-1.9,0.9,0,1.2c1.4,0.3,2.8,0.1,4.2-0.5C561.6,542.7,562.2,543,562.3,544" class="st10"></path>
		<path d="M677.1,552.6c6.3-2.7,12.6-5.3,19-7.8c0.6-0.2,1.3-0.9,1.7-1.5
			c0.2-0.3,0.1-0.8-0.2-1c-0.2-0.1-0.5-0.1-0.7,0l-20.7,10" class="st9"></path>
		<path d="M742.8,571c12.9,3.7,14.8,8.6,21.4,19.2" class="st9"></path>
		<path d="M765.4,597.2c-10.5-8.8-11.6-16-27.5-17.3c-0.7-0.1-1.3,0.1-1.9,0.5
			c-5.6,4.1-9.2,10.4-16.6,11.5c-32.8,4.8-55,7.5-66.4,8.1c-8,0.4-14.6,1.3-20,2.7c-0.6,0.2-1.2,0.6-1.5,1.2
			c-5.2,9.8-12.9,16.8-23.1,21c-18.8,7.8-37.7,15.4-56.6,22.9c-5.1,2-9.3,5.2-12.7,9.6" class="st10"></path>
		<path d="M539.1,657.4c-2.7-4.5-5.7-7.9-8.9-9.9c-0.5-0.3-1.1-0.4-1.7-0.3
			c-6.5,1-12.1,3.7-16.7,8.1c-0.5,0.5-0.9,1.2-0.9,2c-0.1,4.1,1.6,7.4,5.2,9.8" class="st1"></path>
		<path d="M516.1,667l-2.3,0c-0.4,0-0.8,0.3-0.8,0.8c0,0.3,0.2,0.6,0.5,0.7
			l12.2,6.3c0.1,0,0.1,0.1,0.1,0.2c-0.1,0.1-0.2,0.3-0.3,0.4" class="st10"></path>
		<path d="M525.4,675.5c-1.6-0.3-3.1-0.8-4.7-1.4c-46-20.2-87.8-47.4-125.5-81.4" class="st14"></path>
		<path d="M613,605.5l8.9-2.2c0.1,0,0.1-0.1,0.1-0.2c0,0,0,0,0,0
			c-0.1-0.2-0.1-0.4-0.2-0.6c-0.3-0.7-0.8-1-1.5-0.7l-7.7,2.7c-0.3,0.1-0.4,0.4-0.4,0.7S612.7,605.6,613,605.5" class="st9"></path>
		<path d="M625.7,535.7l-0.4-1.3c0-0.2-0.3-0.3-0.5-0.3c0,0,0,0,0,0l-0.4,0.1
			c-10.2,2.8-18.3,5.6-18.1,6.2c0,0,0,0,0,0l0,0c0.2,0.6,8.5-1.3,18.7-4.1c0,0,0,0,0,0l0.4-0.1C625.6,536.1,625.8,535.9,625.7,535.7" class="st9"></path>
		<path d="M364.6,563.4L322,585.5" class="st4"></path>
		<path d="M525.4,675.5c1.1,0,1.4-0.1,0.8-0.4" class="st12"></path>
		<path d="M526.2,675.1c6.9,4,13.8,5.7,20.7,5.1" class="st8"></path>
		<path d="M546.9,680.3c0.2,1.4,0.2,2.3,0.1,2.6c-16.9,32.3-32.5,65.2-46.9,98.7
			c-4.3,10,0,20.4,2.3,30.3c0.5,2.4-0.4,3.6-2.8,3.6c-2.1,0-4.7-0.7-7.7-2.2c-20-9.9-39.2-21.2-57.7-33.8c-0.1,0-0.1,0-0.1,0.1
			c0,0,0,0.1,0,0.1c31.9,34.1,59.1,71.7,81.7,112.7c26.7,48.3,48.2,92.2,64.7,131.6" class="st4"></path>
		<path d="M359.5,1024c-6.4-4-12.4-9.4-17.8-16c-0.1-0.1-0.3-0.2-0.4-0.1
			c-0.2,0.1-0.4,0.1-0.6,0.2c-0.2,0.1-0.3,0.2-0.2,0.4l6.8,15.5" class="st4"></path>
		<path d="M240.1,1024c-29.2-34.9-74.3-47.4-115-61.9c-0.5-0.2-1.1,0.1-1.3,0.6
			c-0.1,0.2-0.1,0.5,0,0.7l22.8,60.6" class="st4"></path>
		<path d="M310.1,698.5c3.6,2.1,6.8,4.3,10.4,6c30.3,14.7,58.6,32.7,84.9,53.8
			c0.3,0.2,0.4,0.2,0.3-0.2c-0.1-0.3-0.2-0.6-0.6-0.9c-28.5-23.7-59.6-43.1-93.3-58.4c-0.3-0.1-0.6-0.4-0.8-0.7
			c-0.2-0.4-0.6-0.4-1,0C310.1,698.2,310,698.3,310.1,698.5C310.1,698.5,310.1,698.5,310.1,698.5" class="st4"></path>
		<path d="M729.8,1024l24.1-135.1" class="st0"></path>
		<path d="M753.9,888.9c15.7-16.2,40.1-39.8,51.4-63.1c0.4-0.7,0.1-1.2-0.7-1.3
			c-19.3-3.1-39.5-10.9-52.4-26.1c-17-20.1-23.8-41.6-33.2-64" class="st10"></path>
		<path d="M719.1,734.4l-8-22.6" class="st7"></path>
		<path d="M711.1,711.8l12.1-23.9c0.3-0.7,0.1-1.5-0.6-1.8c-0.3-0.2-0.7-0.2-1-0.1
			L706,691" class="st10"></path>
		<path d="M706,691c-15.1,4-29.5,9.2-43.2,15.8" class="st7"></path>
		<path d="M662.8,706.8c-17.5,14.7-34.3,29.8-50.6,45.2
			c-6.4,6.1-14.1,11.5-21.1,15.1c-0.6,0.3-1.5,0.4-2.5,0.3c-0.7-0.1-0.8-0.3-0.1-0.7c7.4-4.5,20.6-15.8,20-25.4
			c0-0.7-0.3-1.2-0.7-1.7c-3.7-3.9-8-4.8-13-2.6c-1.1,0.5-1.3,0.2-0.6-0.7l44.2-57.9" class="st0"></path>
		<path d="M638.3,678.3c16.8-12,37.8-20.6,56-30.9" class="st7"></path>
		<path d="M694.3,647.4l13.4-8c0.4-0.3,0.4-0.5,0-0.8c-0.3-0.2-0.5-0.3-0.8-0.2
			c-5.1,1.7-10.4,2.4-16,2.1" class="st10"></path>
		<path d="M690.9,640.5c-20,1-40.1,2.1-60.2,3.4c-31.3,1.9-57.2,16.8-84.9,26.1
			c-5.8,1.9-13.1,2.8-19.6,5.1" class="st7"></path>
		<path d="M516.1,667c7.6,4,19.2-4,23-9.6" class="st0"></path>
		<path d="M694.3,647.4l-3.4-6.8" class="st6"></path>
		<path d="M638.3,678.3c-3.4-4.7-7.8-8.7-12.9-12.1c-0.6-0.4-1.2-0.4-1.8,0.1
			l-37.4,32.4" class="st3"></path>
		<path d="M586.1,698.7c8.4-8.6,33.1-31.6,35.3-42.3c2.8-14-28.9-2.1-34.2,0.9
			c-6.8,3.9-8.8,11-16.8,14.8" class="st6"></path>
		<path d="M570.4,672.1c-10.2,0.5-18.1,3.2-23.5,8.1" class="st3"></path>
		<path d="M586.1,698.7c-7,5.4-14.6,9.8-22.8,13.2c-0.6,0.3-1.3,0.3-1.9,0.1
			c-3.1-0.9-5.8-2.5-8.1-4.9c-0.9-1-0.9-1.9,0.1-2.9c0.5-0.4,0.7-1.1,0.5-1.7l-0.9-4.2" class="st1"></path>
		<path d="M553.1,698.3l7.2-8.8" class="st9"></path>
		<path d="M560.3,689.5c1.1-5.3,4.3-10,9.6-14.1c0.9-0.7,1.1-1.8,0.5-3.2" class="st1"></path>
		<path d="M662.8,706.8c8.4,15.4,18.1,29,29.1,40.8" class="st3"></path>
		<path d="M691.9,747.6c11.8,12.7,26.9,23.2,40.5,34c6,4.8,26.5,24.2,27.6,36.4
			c2.1,22.9-3.1,47.9-6.1,70.9" class="st1"></path>
		<path d="M560.3,689.5c-4.1,2.7-6.5,5.6-7.2,8.8" class="st2"></path>
		<path d="M711.1,711.8L706,691" class="st6"></path>
		<path d="M719.1,734.4c-6.6-7.6-13.9-13.6-21.9-18c-11.2-6.2-21,4.6-15.2,15.6
			c1.9,3.7,5.2,8.9,9.9,15.5" class="st6"></path>
	</g>
	<path d="M0,0h1024v1024H835.1c10-63.4,17.1-123.6,21.5-180.5c1.1-14.5-1.1-27.5-7-41.9
		c-28.4-68.1-56.4-136.3-84.1-204.5l-1.2-7c16.5-4.6,30.7-12.6,42.6-24.1c0.3-0.3,0.2-0.4-0.1-0.2c-19.5,6.5-37.5,5.5-54-3
		c32.6,4.3,63.6-3.8,79.2-35c0.2-0.1,0.3-0.3,0.1-0.7c-0.1-0.2-0.2-0.2-0.4-0.2c-0.1,0-0.1,0.1-0.1,0.1c-7,12.5-23.3,29.5-38.3,29.6
		c-1,0-1-0.2-0.2-0.7c20.7-11.6,36.5-27.9,47.4-48.9c0.2-0.4,0.1-0.8-0.3-1c-0.3-0.2-0.7-0.1-0.9,0.1c-17.8,17.2-44.7,22.8-53-8.5
		c-9.3-34.8-4-76.7-0.9-112.3c0.2-2.4,0.8-4.1,1.8-5.1c13.6-13.7,21.7-29.8,24.2-48.4c8.4-62.7-24.9-122.4-66.6-166.3
		c-12.3-13-21.7-31.6-31.1-43.6C662.3,56.5,582.2,7.6,498,10.6c-19.1,0.7-35.2,8.1-48.3,22.2c-0.5,0.5-1,0.8-1.7,0.9
		c-43.6,5.3-85,25.6-113.8,58.9c-15,17.3-29.6,43.5-39.1,65.1c-10.3,23.4-20.6,46.7-30.9,70.1c-12.6,28.7-24.2,55-54,69
		c-19.6,9.2-36.6,21.6-50.9,37.1C126,370.1,93,444,141.1,483.4c18.3,14.9,36.5,29.8,54.7,44.8c12.7,10.5,25.4,26.3,24.4,43.5
		c-1.1,18.2-12.7,29.8-29.5,36.3c-0.7,0.3-0.7,0.4,0.1,0.5c1.2,0.1,2.7-0.1,4.7-0.5c16.6-3,27.9-6.2,37-21.3c0.5-0.9,1-0.9,1.5,0
		c13.2,21.6,32.9,34.7,58.9,39.2c-8.7,12.3-17.7,23.1-26.9,32.3c-45.5,45.4-95.4,87.6-137.5,142C78.7,864.9,46.8,942,40.2,1024H0V0z" class="st15"></path>
	<path d="M752.6,562.9c-3.3,1.5-6.5,4.2-9.8,8.1c-3.9-5-6.7-11.1-8.6-18.1c-3.6-13.6-15.2-10.6-22.1-20.5
		c-6.1-8.7-11.6-17.7-16.6-27c-0.2-0.4-0.7-0.5-1.1-0.3c-0.1,0.1-0.3,0.2-0.3,0.3c-5.9,10.6-11.8,21.2-17.7,31.7
		c-1.6,2.9-2.5,5.3-2.8,7.3c-0.5,3.8,0.3,6.5,2.5,7.9c0.3,0.1,0.6,0.2,0.9,0.3c-9.9,4.2-21.6,8-29.6,15.4
		c-11.1,10.2-21.7,20.8-32,31.8c-5.4,5.8-9.5,8.6-16.5,11.1c-23.9,8.7-43.6,19.8-65.1,33.2c-0.6,0.4-1.5,0.2-1.9-0.4
		c-0.3-0.4-0.3-0.9-0.1-1.3c1.6-3.2,2.3-6.5,2.1-10c0-0.6-0.3-1.2-0.6-1.7c-16.2-21.3-33.5-42-51.9-62c28.8,18.1,54,31.7,75.6,40.8
		c14.6,6.1,28.7,5.9,42.3-0.6c5.3-2.6,11.9-7.7,19.7-15.3c30.3-29.9,70.1-63.9,79-107.8c1.1-1.9,1.7-3.4,1.8-4.6
		c0.1-0.8-0.3-1.2-1-1.2l-15-1.5c-18.3-5.3-36.9-18.6-43.3-37.2c-2-11-3.6-22.1-4.9-33.4c-0.1-0.8-1-2.2-2.8-4.4
		c-10.1-15.1-26.7,1.1-37.5,10.2c-0.5,0.4-0.8,1-0.9,1.6c-12.5,67.3-92.7,96.1-137.7,39.6c-12.4-18.7-15.9-39-10.4-60.8l2.4-14
		c0.1-0.6-0.2-1.3-0.8-1.6c-9.4-4-19.3-6.7-29.6-8.1c-1.7-1-3.4-0.7-5.1,0.9c-10.4,10.2-11.8,21-13.9,36.8
		c-3.7,26.8,0.6,52.3,12.7,76.6l15.4,33.4c-1-1.9-1.9-3.6-2.9-5.1c-19.4-29.1-31.5-68-36.6-102.3c0-0.3-0.3-0.5-0.6-0.4
		c-0.1,0-0.2,0.1-0.3,0.2c-11.8,15.7-26.6,27.7-44.6,35.8c-0.5,0.2-0.7,0.6-0.4,1.1c10.7,20.5,27.6,29.4,50.5,22.7
		c2.9-0.9,4.9,0.2,5.9,3c3.8,10.9,8.7,21.2,14.8,30.9c0.3,0.5,0.2,0.7-0.4,0.7c-0.4,0-0.7-0.2-0.9-0.6c-2.7-5.4-7.5-10.7-10.5-16
		c-0.3-0.5-0.9-0.7-1.4-0.4c-0.3,0.1-0.5,0.4-0.5,0.7c-3.3,14.2-7.1,28.3-11.4,42.3c-2,6.5,8.9,25.8,9.6,30.5
		c1.7,11.3,1,21.6-2.1,31c-6.8,14.9-16.9,25.6-30.2,32c-1.1,0.5-3,2-5.8,4.3c-0.1,0.1-0.2,0-0.2,0c0,0,0,0,0,0c0,0-0.1-0.1-0.1-0.1
		c-0.1-0.2-0.1-0.4,0.1-0.5c16.2-18.5,26.7-50.3,8.3-70.7c-0.2-0.2-0.5-0.2-0.7,0c-0.1,0.1-0.2,0.3-0.1,0.5
		c5.5,17.5-2.8,37.2-16,47.9c-0.1,0-0.1,0-0.2,0c0,0-0.1,0-0.1,0c-0.1-0.1-0.2-0.1-0.1-0.3c12.2-12,16.9-26.1,14.4-42.3
		c-3.8-7.5-9.1-12.2-15.8-14c-0.7-0.2-1.4,0.1-1.8,0.6c-8.6,10.5-16.9,22.3-24.9,35.4l-29,40.4c-26.1-4.5-45.7-17.6-58.9-39.2
		c-0.5-0.8-1-0.8-1.5,0c-9.1,15.1-20.4,18.4-37,21.3c-1.9,0.4-3.5,0.5-4.7,0.5c-0.8,0-0.8-0.2-0.1-0.5c16.7-6.4,28.4-18,29.5-36.3
		c1-17.3-11.7-33.1-24.4-43.5c-18.2-15-36.4-29.9-54.7-44.8C93,444,126,370.1,159.4,333.8c14.3-15.6,31.3-27.9,50.9-37.1
		c29.8-13.9,41.4-40.2,54-69c10.3-23.4,20.6-46.7,30.9-70.1c9.5-21.5,24.1-47.7,39.1-65.1C363,59.3,404.4,39,448,33.7
		c0.7-0.1,1.2-0.4,1.7-0.9c13.1-14.1,29.2-21.5,48.3-22.2c84.2-3,164.2,45.9,215.4,111.5c9.3,12,18.8,30.6,31.1,43.6
		c41.7,44,75.1,103.6,66.6,166.3c-2.5,18.5-10.6,34.7-24.2,48.4c-1,1-1.6,2.7-1.8,5.1c-3.1,35.6-8.4,77.5,0.9,112.3
		c8.3,31.3,35.2,25.7,53,8.5c0.3-0.3,0.7-0.3,1,0c0.3,0.2,0.3,0.6,0.1,0.9c-10.9,21-26.7,37.3-47.4,48.9c-0.8,0.5-0.8,0.7,0.2,0.7
		c15-0.1,31.3-17.1,38.3-29.6c0.1-0.1,0.3-0.2,0.4-0.1c0.1,0,0.1,0.1,0.1,0.1c0.2,0.4,0.1,0.6-0.1,0.7
		C816.3,559,785.2,567.2,752.6,562.9z M600.9,109c-38.5-32.8-83-52.4-133.5-58.6c-0.5-0.1-0.9,0-1.3,0.2c-0.5,0.3-0.5,0.5,0.1,0.6
		c50.9,10.9,96.7,28.2,136.2,62.7c2.4,2.1,4.2,6.7,9,7c0.3,0,0.6-0.2,0.6-0.5c0-0.2,0-0.3-0.1-0.4
		C608.3,115.8,604.6,112.2,600.9,109z M514.4,65.9c-17.2-5.5-17.6-4.6-1.1,2.6c23.7,10.3,47,31.2,60.6,54.6c0.3,0.6,0.8,0.8,1.4,0.6
		c9.1-2.7,18.3-4,27.7-3.7c1.9,0.1,2.2-0.6,0.8-1.9C579.2,93.5,547,76.3,514.4,65.9z M564.5,203.6c-16.5,38.3-41.8,67.2-75.2,92.3
		c-0.7,0.5-0.6,0.8,0.3,0.8c20.7,0.8,48.9,4.7,68.1,14.6l-0.8,1.8c-0.2,0.5-0.6,0.7-1.1,0.6l-3-0.3c-0.5,0-1,0.3-1.1,0.9
		c0,0.3,0.1,0.5,0.2,0.7c3,3.9,6.7,6.8,11.2,8.8c0.6,0.3,1,0.9,1,1.6c-0.1,0.6-0.3,1.1-0.7,1.5c-27.9-8.1-62.7-16.7-92.5-14.6
		c0.3-1.7,1.6-3.1,4-4.1c0.6-0.3,0.6-0.5,0-0.7c-0.4-0.1-0.8-0.1-1.2,0.1c-4.1,1.6-7.4,3.6-10,6c-10.8,3.1-16,7.5-22.3,17.5
		c-5.3,8.6-11,16.9-16.9,25c-0.4,0.6-0.3,1,0.3,1.3c0.9,0.5,1.7,0.7,2.5,0.8c12.1,2.4,21.4,3.6,27.8,3.7c3.4,0.1,8-3.5,10.8-4.6
		c10.9-4.4,22.2-7.9,33.6-10.6c41.3-9.6,82.8,8.3,94.7,51.2c0.2,0.6,0.5,1.1,1,1.5c5.8,4.7,12.5-3.4,15.2-8.3
		c0.4-0.7,0.9-1.2,1.6-1.5c6.2-2.8,12.6-3.1,19.2-0.9c0.4,0.1,0.7,0.3,0.9,0.6l5,6.3c0.4,0.5,1.2,0.6,1.7,0.2
		c0.2-0.1,0.3-0.3,0.4-0.5c10-21.8,26-37.1,48-46c9.7-3.1,20.1-4.7,31.3-4.7c0.8,0,1.4-0.6,1.4-1.4c0,0,0-0.1,0-0.1l-2.1-19.5
		c-0.1-1.3-0.9-1.9-2.2-1.8l-12,1l-41.6,8.5l19.1-16.2c0.5-0.4,0.7-1,0.6-1.7L681,311c9.9-3.2,20-5.2,30.2-6.2
		c0.5-0.1,0.9-0.5,0.8-1c0,0,0-0.1,0-0.1c-6.6-24.5-14.9-49.8-29.7-70.6c-13.5-19.1-28.7-35.2-45.7-48.3
		c-7.3-7.4-14.8-13.6-22.4-18.6c0.4-0.6,0.8-0.9,1.2-0.8c28.4,19.8,52.9,43.4,73.7,70.7c0.1,0.2,0.3,0.2,0.3,0c0-0.1,0-0.2,0-0.3
		c0-0.2-0.1-0.3-0.2-0.5c-14.7-21.9-33.9-42.2-57.7-60.9c-8.7-6.8-16.4-11.3-23.1-13.5c-9.9-4.7-20.2-8.4-31-11
		c-1-0.2-1.6,0.1-1.7,1.2C573.6,168.7,569.8,186.2,564.5,203.6z M705.1,258c0.3,1.5,0.7,2.5,1.3,3.1c0.4,0.4,0.6,0.3,0.6-0.3
		c0-0.9-0.3-1.9-0.9-3c-13.7-37.4-35.3-72.1-70.1-92.8c-1.9-1.1-2-1-0.3,0.5C664.1,189.8,691.4,224.1,705.1,258z M786.2,299.7
		c1.9,20.6,0.9,41,0.3,58.7c0,1.1,0.3,1.2,0.9,0.4c42.4-53.9,13.7-129-32.3-169c-0.2-0.2-0.6-0.2-0.8,0c-0.2,0.2-0.2,0.4-0.1,0.6
		C771.2,224.4,782.8,261.8,786.2,299.7z M564.3,194.2c-14.5,30.1-33.7,56.9-57.6,80.3c-0.3,0.3-0.3,0.6,0,0.9
		c0.2,0.3,0.5,0.3,0.8,0.1c24.7-19.3,48.6-50.1,57.7-81C566.3,190.8,566,190.7,564.3,194.2z M195.5,307.6
		c-20.5,10.6-36.2,27.5-49.3,46.1c-0.1,0.1,0,0.2,0.1,0.3c0.1,0,0.2,0,0.2,0c23.5-20.1,50.4-37.9,73.1-56.7c0.3-0.2,0.3-0.7,0-0.9
		c-0.2-0.2-0.4-0.2-0.7-0.2C210.9,299.9,203.1,303.7,195.5,307.6z M127.9,399.9c-6.2,23.6-1.4,44,14.3,61.4c0.3,0.4,0.9,0.4,1.2,0
		c0.2-0.2,0.3-0.4,0.3-0.6c0.9-27.4,15-52.5,33.2-71.3c19.3-20,37.2-40.6,53.7-61.7c1.1-1.4,0.8-1.8-0.9-1.2
		c-22.3,8.4-43.1,17.8-62.5,28C149.1,364.1,133.2,379.5,127.9,399.9z M531.1,358.9c4.1,6.4,9.2,11.3,15.2,14.8
		c3.8,5.5,6.1,11.7,6.9,18.7c-6.2-11.9-15.1-20.4-26.8-25.5c-0.7-0.3-1.1-0.1-1.1,0.7c0.1,5.9-0.8,11.5-2.8,16.6
		c-1.1,6.1-6.7,3.5-9.9,2c-2.3-1.8-5.4-2.6-9.3-2.3l2.3-3.2c0.4-0.6,0.5-1.3,0.2-2c-0.8-1.5-2-2.5-3.6-3c-1.6-0.4-2.9,0-4,1.2
		c-1.9,2.1-1.8,4.3,0.1,6.7c-4.7,0.8-11.2,0.9-13.7,5.6c-0.3,0.6-0.2,1.3,0.2,1.8l7.7,8.7c-5.2-2.3-9.2-6.5-12-12.7l-2.6-13.9
		c-0.1-0.8-0.6-1-1.3-0.7c-4.5,1.9-7.5,5.1-9.2,9.4l-4.3,4.4l-6.2,9.5c-5.9,14.7-6.2,28.7-0.8,41.7c19.1,46.5,81.3,56.1,113.1,16
		c10.1-10.7,15.6-24.9,16.4-42.4c1.8-13.5-2.7-25.9-13.4-37.2c-13.7-14.3-30.4-20.9-50.1-19.8c-2.8,0.2-2.9,0.7-0.2,1.6L531.1,358.9
		z M714.5,366l-10.9-4.1c-0.4-0.1-0.8,0.1-0.9,0.4c-0.1,0.3,0,0.6,0.2,0.7l12.5,10.6c0.4,0.3,1,0.3,1.3-0.1c0.1-0.1,0.2-0.3,0.2-0.5
		l1.9-18c0-0.5-0.2-0.7-0.6-0.8c-8.1-0.9-16,0-23.6,2.8c-0.3,0.1-0.5,0.3-0.4,0.6c0.1,0.3,0.3,0.5,0.6,0.4
		c7.8-0.8,14.7,1.2,20.7,6.2c0.4,0.4,0.5,1,0.1,1.4C715.3,366,714.9,366.1,714.5,366z M471.8,358.7c-0.2-0.5-2.4,0.2-4.9,1.5
		c0,0,0,0,0,0c-2.4,1.3-4.2,2.7-4,3.1l0,0c0.2,0.5,2.4-0.2,4.9-1.5c0,0,0,0,0,0C470.2,360.6,472,359.2,471.8,358.7L471.8,358.7z
		 M742,462.4c18.2-16,26.8-35.8,25.9-59.2c-0.8-19.2-8.7-33.4-25.3-42.6c-0.1-0.1-0.2-0.1-0.3-0.1c-0.1,0.1-0.2,0.2-0.3,0.4
		c0,0.1,0,0.2,0.1,0.3c36,26.3,26.7,76.7-3.4,103.5c-0.5,0.5-0.4,0.6,0.2,0.4c0.7-0.2,1.2-0.5,1.7-1.1
		C741.4,463,741.9,462.5,742,462.4z M676.7,382.1l-3.6,7.3c-0.3,0.7-0.9,1-1.7,0.9l-9.4-1.4c-0.4-0.1-0.6-0.3-0.6-0.7
		c0.1-1.8-0.6-3-2.1-3.8c-1.8-0.9-4-0.2-4.9,1.6c-0.1,0.3-0.2,0.6-0.3,0.9c-0.8,4.3,0,5.7,2.4,4.1c-2.2,4.5-8.2,1-7.1,9.3
		c-0.7,1.1-1.1,1.5-1.3,1.2l-3.1,10.6c-4.6,35.4,21.8,62.4,57.2,59.4c0.7-0.1,1-0.4,1.2-1l5-22.8c3.7-19.2,6.2-38.5,7.3-57.8
		c0.2-2.8,1.7-7.5-1.9-9.2c-0.8-0.4-1.7-0.1-2.2,0.6l-9.4,12.5c-0.8,1.1-0.7,2,0.5,2.7l3.3,2c0.2,0.1,0.4,0.4,0.2,0.7
		s-0.4,0.4-0.7,0.2l-4.2-1.7c-1.5-0.6-3.2,0.1-3.9,1.6c-0.4,0.9-0.3,2,0.3,2.8l0.9,1.3c-3.4,0.3-5.8,1.4-7.2,3.2
		c-0.4,0.5-0.9,0.8-1.5,0.9l-11.5,2.4c8.2-2.9,15.1-8,20.6-15.4l5.8-12.1c0.3-0.6,0.3-1.2,0-1.8c-4.4-8.8-13.6-16.9-24.1-14.3
		c-1.3,0.3-2.3,1.4-2.5,2.8L676.7,382.1z M758.2,398.1c-27.3,14.7-42.2,44.5-51.5,72.5c-0.2,0.6,0,0.8,0.6,0.7
		c36.3-5.7,57.6-35.5,53-72.2C760.1,397.8,759.4,397.5,758.2,398.1z M378.2,399.2l-33.2,31.7c-0.1,0.1,0,0.2,0,0.3c0,0,0.1,0,0.2,0
		c14.2-7.9,25.6-18.8,34.4-32.4c0.1-0.2,0.1-0.5-0.1-0.6c-0.1,0-0.1-0.1-0.2-0.1c-0.4-0.1-0.6,0.1-0.7,0.4
		C378.5,398.8,378.4,399,378.2,399.2z M243.6,463.4c-12,9.5-20.2,21.8-24.6,36.7l-4.3,10.1c-0.2,0.6-0.2,1.2,0.2,1.7l8.5,11.1
		c0.6,0.8,1,0.7,1.2-0.3c13.1-63.5,85.3-95.4,139.6-119.2c0.6-0.3,0.6-0.5,0-0.6c-0.4-0.1-0.7-0.1-1.1,0.1
		c-23.7,9.6-50,21.3-77.2,32.1C269.5,441.7,255.4,451.1,243.6,463.4z M340.8,444.6c0.1,0.1,0.2,0.1,0.3,0
		c18.8-8.5,34.3-21.2,46.4-38.1c0.3-0.5,0.3-0.9-0.1-1.4c-0.4-0.5-0.8-0.6-1.3-0.1c-13.2,14.5-28.9,25.5-47.2,32.8
		c-1.4,0.6-2.1,2.2-1.5,3.6c0.2,0.4,0.5,0.8,0.8,1.1L340.8,444.6z M153.8,443.6c0-0.4-0.3-0.6-0.7-0.6c-0.3,0-0.5,0.2-0.6,0.4
		c-3.7,12.5-2.5,24.4,3.6,35.8c0.2,0.5,0.7,0.7,1.1,0.5c0.5-0.2,0.7-0.7,0.5-1.1C154.6,467.1,153.2,455.5,153.8,443.6z M777.2,460.6
		c-1.8,15-5,33,6.2,44c0.2,0.2,0.6,0.2,0.8,0c0.1-0.1,0.2-0.4,0.1-0.6c-4.5-14.8-3.5-28.5-6.5-43.5c-0.1-0.2-0.2-0.3-0.4-0.3
		C777.3,460.4,777.2,460.5,777.2,460.6z M776.1,510.5l1.9-0.7c0.2-0.1,0.3-0.3,0.2-0.4c0,0,0,0,0,0l-2.1-5.6
		c-3.3-8.8-6.3-15.8-6.8-15.6l-0.8,0.3c-0.5,0.2,1.8,7.5,5,16.3c0,0,0,0,0,0l2.1,5.6C775.7,510.5,775.9,510.6,776.1,510.5
		C776.1,510.5,776.1,510.5,776.1,510.5z M378.3,605l-10.7,15.1c-0.3,0.4-0.2,0.9,0.2,1.1c0.3,0.2,0.6,0.2,0.9,0
		c12.3-7.5,20.9-17.7,25.6-30.6c3.6-12.5,2.7-24.5-2.8-36.1c-0.4-0.9-0.7-0.8-1,0.1c-0.2,0.7-0.1,1.2,0.2,1.7
		c0.3,0.5,0.4,0.9,0.4,1.5C390.6,574.1,386.3,589.8,378.3,605z M250.5,565.6c-1.4,11.7,40,36.7,43.1,21.6c0.1-0.5-0.1-0.8-0.7-0.8
		c-17.5-0.1-31.4-7.1-41.6-21C250.9,564.8,250.6,564.9,250.5,565.6z M261.7,588.3c4.9,4,20.9,13.5,26.8,8.1c0.4-0.4,0.5-1.1,0.1-1.5
		c-0.2-0.2-0.4-0.3-0.6-0.3c-15.2-2.3-27.2-9.6-36.2-21.8c-0.1-0.2-0.4-0.3-0.6-0.2s-0.3,0.4-0.2,0.6l0,0
		C253.2,579.2,256.8,584.2,261.7,588.3z" class="st16"></path>
	<path d="M600.9,109c3.7,3.1,7.4,6.8,11.1,11c0.2,0.2,0.2,0.6,0,0.8c-0.1,0.1-0.3,0.2-0.4,0.1c-4.8-0.4-6.6-5-9-7
		C563,79.4,517.2,62.2,466.3,51.2c-0.6-0.1-0.6-0.3-0.1-0.6c0.3-0.2,0.8-0.2,1.3-0.2C518,56.7,562.5,76.2,600.9,109z" class="st15"></path>
	<path d="M514.4,65.9c32.6,10.4,64.9,27.6,89.5,52.1c1.3,1.3,1.1,2-0.8,1.9c-9.4-0.3-18.7,0.9-27.7,3.7
		c-0.6,0.2-1.1,0-1.4-0.6c-13.6-23.4-36.9-44.2-60.6-54.6C496.8,61.3,497.2,60.5,514.4,65.9z" class="st15"></path>
	<path d="M608.5,161c0.6,1.1,1.4,1.9,2.3,2.4l3.4,2.8c7.6,5,15.1,11.2,22.4,18.6c-15-5.9-29.4-8.3-43.2-7.3
		c-11.1,0.8-20.3,26.5-28.9,26c5.3-17.4,9.1-34.9,11.3-52.5c0.1-1,0.7-1.4,1.7-1.2C588.3,152.6,598.7,156.3,608.5,161z" class="st17"></path>
	<path d="M608.5,161c6.7,2.2,14.4,6.7,23.1,13.5c23.8,18.7,43.1,39,57.7,60.9c0.1,0.2,0.2,0.3,0.2,0.5
		c0,0.1,0,0.2,0,0.3c-0.1,0.2-0.2,0.2-0.3,0c-20.8-27.3-45.4-50.9-73.7-70.7c-1.9-1.8-3.4-2.5-4.6-2
		C609.9,162.9,609.2,162.1,608.5,161z" class="st15"></path>
	<path d="M615.4,165.4c-0.4-0.1-0.8,0.2-1.2,0.8l-3.4-2.8C612,162.9,613.6,163.6,615.4,165.4z" class="st18"></path>
	<path d="M706.1,257.9c-0.4,0.1-0.7,0.2-1,0.1c-13.6-33.9-41-68.2-69.4-92.5c-1.7-1.5-1.6-1.6,0.3-0.5
		C670.8,185.8,692.4,220.4,706.1,257.9z" class="st17"></path>
	<path d="M636.6,184.8c17,13.1,32.2,29.2,45.7,48.3c14.7,20.8,23.1,46.1,29.7,70.6c0.1,0.5-0.2,1-0.6,1.1
		c0,0-0.1,0-0.1,0c-10.2,0.9-20.3,3-30.2,6.2c-12.5,5-22.8,12.8-30.9,23.5c-0.5,0.7-0.3,1,0.5,0.9c4.5-0.5,8.2-1.8,11.2-3.9
		l41.6-8.5c0.3,6.6-1.9,12.2-6.5,16.9c-3.5,3.5-8.7,2.8-9.8,9.8c-21.9,8.9-37.9,24.2-48,46c-0.3,0.6-1,0.9-1.6,0.6
		c-0.2-0.1-0.3-0.2-0.5-0.4l-5-6.3c-0.2-0.3-0.5-0.5-0.9-0.6c-6.5-2.3-12.9-2-19.2,0.9c-0.7,0.3-1.2,0.8-1.6,1.5
		c-2.6,4.9-9.4,13-15.2,8.3c-0.5-0.4-0.8-0.9-1-1.5c-11.9-42.9-53.3-60.8-94.7-51.2c-11.5,2.7-22.7,6.2-33.6,10.6
		c-2.8,1.1-7.4,4.7-10.8,4.6c-6.4-0.1-15.7-1.4-27.8-3.7c13.6-14,24.8-30.5,38.6-44.8c2.1,0.1,3.8-0.3,5.1-1.1
		c29.8-2,64.6,6.5,92.5,14.6l10.1,3.6l4.1-0.2l2.8,2.6c0.8,0.8,1,0.6,0.6-0.4c-4.5-10.8-12.2-17.9-23.3-21.2
		c-19.2-9.9-47.4-13.8-68.1-14.6c-0.9,0-1-0.3-0.3-0.8c33.4-25.1,58.7-54,75.2-92.3c8.6,0.5,17.8-25.2,28.9-26
		C607.2,176.5,621.6,178.9,636.6,184.8z" class="st19"></path>
	<path d="M786.5,358.4c0.5-17.6,1.5-38.1-0.3-58.7c-3.4-37.9-15-75.3-31.8-109.3c-0.1-0.3-0.1-0.6,0.2-0.7
		c0.2-0.1,0.5-0.1,0.6,0.1c46,40,74.7,115.1,32.3,169C786.8,359.6,786.5,359.5,786.5,358.4z" class="st15"></path>
	<path d="M565.2,194.5c-9.1,30.9-33,61.7-57.7,81c-0.3,0.2-0.6,0.2-0.8-0.1c-0.3-0.3-0.3-0.6,0-0.9
		c23.9-23.4,43.1-50.2,57.6-80.3C566,190.7,566.3,190.8,565.2,194.5z" class="st20"></path>
	<path d="M705.1,258c0.3,0,0.6,0,1-0.1c0.6,1.1,0.9,2.1,0.9,3c0,0.6-0.2,0.7-0.6,0.3
		C705.8,260.5,705.3,259.5,705.1,258z" class="st18"></path>
	<path d="M146.2,353.7c13.1-18.6,28.8-35.6,49.3-46.1c7.6-3.9,15.4-7.7,23.5-11.3c0.3-0.1,0.7,0.1,0.8,0.4
		c0.1,0.2,0,0.5-0.2,0.7c-22.7,18.8-49.6,36.5-73.1,56.7c-0.1,0.1-0.2,0-0.3-0.1C146.2,353.9,146.1,353.8,146.2,353.7z" class="st15"></path>
	<path d="M470.9,312.4c-1.3,0.8-3,1.2-5.1,1.1l-2.2,0.2c2.6-2.5,6-4.5,10-6c0.4-0.2,0.8-0.2,1.2-0.1
		c0.7,0.2,0.7,0.5,0,0.7C472.5,309.3,471.2,310.7,470.9,312.4z" class="st18"></path>
	<path d="M681,311l0.5,2.6c0.1,0.7-0.1,1.2-0.6,1.7l-19.1,16.2c-2.9,2.1-6.7,3.4-11.2,3.9c-0.8,0.1-1-0.2-0.5-0.9
		C658.2,323.9,668.5,316.1,681,311z" class="st18"></path>
	<path d="M557.7,311.3c11.1,3.4,18.8,10.4,23.3,21.2c0.4,1,0.2,1.2-0.6,0.4l-2.8-2.6c-4.2-4.1-8.2-8.4-12-12.9
		c-0.8-0.9-1.7-1.4-2.7-1.5c-0.5,0-1,0.4-1,0.9c0,0.3,0.1,0.6,0.4,0.8c4.5,3.5,8.2,7.8,11.2,12.9l-10.1-3.6c0.4-0.4,0.6-0.9,0.7-1.5
		c0.1-0.7-0.3-1.4-1-1.6c-4.5-2-8.3-5-11.2-8.8c-0.3-0.4-0.3-1,0.2-1.4c0.2-0.2,0.5-0.2,0.7-0.2l3,0.3c0.5,0.1,0.9-0.2,1.1-0.6
		L557.7,311.3z" class="st18"></path>
	<path d="M463.6,313.6l2.2-0.2c-13.7,14.4-24.9,30.8-38.6,44.8c-0.8,0-1.7-0.3-2.5-0.8c-0.6-0.3-0.7-0.8-0.3-1.3
		c5.9-8.1,11.6-16.5,16.9-25C447.6,321.1,452.8,316.8,463.6,313.6z" class="st17"></path>
	<path d="M577.5,330.4l-4.1,0.2c-3-5.1-6.7-9.5-11.2-12.9c-0.4-0.3-0.5-0.9-0.2-1.3c0.2-0.2,0.5-0.4,0.8-0.4
		c1,0,1.9,0.5,2.7,1.5C569.3,321.9,573.3,326.3,577.5,330.4z" class="st17"></path>
	<path d="M687,349.7c1.1-7,6.4-6.3,9.8-9.8c4.6-4.6,6.8-10.2,6.5-16.9l12-1c1.3-0.1,2.1,0.5,2.2,1.8l2.1,19.5
		c0.1,0.8-0.5,1.4-1.2,1.5c0,0-0.1,0-0.1,0C707.1,345,696.7,346.5,687,349.7z" class="st17"></path>
	<path d="M127.9,399.9c5.4-20.4,21.2-35.8,39.3-45.4c19.3-10.2,40.2-19.6,62.5-28c1.7-0.6,1.9-0.2,0.9,1.2
		c-16.5,21.1-34.4,41.7-53.7,61.7c-18.1,18.8-32.3,43.9-33.2,71.3c0,0.5-0.4,0.9-0.9,0.8c-0.2,0-0.4-0.1-0.6-0.3
		C126.4,443.9,121.7,423.5,127.9,399.9z" class="st15"></path>
	<path d="M585.6,411.1c-10.4,8.9-17.6,19.8-21.6,32.9c-1.7,5.7,0,8.9,5.2,9.5c-31.8,40.1-94.1,30.5-113.1-16
		c-5.3-13.1-5.1-27,0.8-41.7c2.3,2.7,4.7,3.9,7.4,3.5l4.6-1.9c0.7-0.3,1.5-0.2,2.1,0.3l5.3,4.7c0.6,0.5,0.5,1-0.1,1.3l-0.6,0.4
		c-1,0.6-0.9,0.9,0.2,0.8c3.6-0.1,6.8,1.1,9.4,3.7c0.4,0.4,0.6,0.9,0.4,1.4l-1.2,3.8c-0.1,0.5,0.2,1,0.6,1.1c0.4,0.1,0.8-0.1,1-0.4
		l1.8-3.7c0.3-0.7,0.9-0.9,1.6-0.6c4.3,2,8.3,2.4,11.9,1c14.3,1.2,28.2-2.4,41.6-10.8c2.5-1.5,3.7-3.5,3.7-5.8
		c2.5,1,4.8,0.3,6.7-2.3c-0.8-6.9-3.1-13.2-6.9-18.7c1.3-1.1,2.9-0.7,4.8,1.2c1.9,1.9,3.8,3.4,5.7,4.5c0.2,0.1,0.5,0.1,0.7-0.2
		c0.1-0.2,0.1-0.4,0-0.6c-7-8.6-15.7-15.1-26.4-19.8l-9.3-3.2c-2.7-0.9-2.6-1.4,0.2-1.6c19.7-1.1,36.4,5.5,50.1,19.8
		C582.9,385.1,587.3,397.5,585.6,411.1z M473.8,430.4c0-0.8-0.7-1.5-1.5-1.5l0,0c-0.8,0-1.5,0.7-1.5,1.5s0.7,1.5,1.5,1.5
		S473.8,431.2,473.8,430.4L473.8,430.4z" class="st19"></path>
	<path d="M714.5,366c0.5,0.2,1.1-0.1,1.3-0.6c0.2-0.4,0-0.8-0.3-1.1c-6-5-12.9-7-20.7-6.2c-0.3,0.1-0.6-0.1-0.6-0.4
		c-0.1-0.3,0.1-0.6,0.4-0.6c7.6-2.8,15.5-3.7,23.6-2.8c0.5,0.1,0.7,0.3,0.6,0.8l-1.9,18c-0.1,0.5-0.5,0.9-1,0.8
		c-0.2,0-0.4-0.1-0.5-0.2L702.9,363c-0.3-0.3-0.3-0.7,0-1c0.2-0.2,0.5-0.3,0.7-0.2L714.5,366z" class="st17"></path>
	<ellipse ry="0.9" rx="5" cy="361" cx="467.3" class="st17" transform="matrix(0.8862 -0.4633 0.4633 0.8862 -114.0891 257.5926)"></ellipse>
	<path d="M531.1,358.9c10.6,4.6,19.4,11.2,26.4,19.8c0.2,0.2,0.1,0.5-0.1,0.7c-0.2,0.1-0.4,0.1-0.6,0
		c-1.9-1.1-3.8-2.6-5.7-4.5c-1.9-1.9-3.5-2.3-4.8-1.2C540.3,370.2,535.2,365.2,531.1,358.9z" class="st18"></path>
	<path d="M740.5,464c-0.5,0.5-1,0.9-1.7,1.1c-0.7,0.2-0.7,0-0.2-0.4c30.1-26.7,39.4-77.2,3.4-103.5
		c-0.1-0.1-0.1-0.2-0.1-0.3c0.1-0.2,0.2-0.3,0.3-0.4c0.1,0,0.2,0,0.3,0.1c16.5,9.2,24.5,23.4,25.3,42.6c1,23.4-7.7,43.2-25.9,59.2
		C741.9,462.5,741.4,463,740.5,464z" class="st15"></path>
	<path d="M699,394.8l-0.6-6.5c-0.3-3-2.7-5.3-5.6-5.4l-16.1-0.7l1.5-12.8c0.2-1.3,1.2-2.5,2.5-2.8
		c10.6-2.6,19.7,5.5,24.1,14.3c0.3,0.6,0.3,1.2,0,1.8L699,394.8z" class="st17"></path>
	<path d="M553.3,392.3c-1.9,2.6-4.2,3.4-6.7,2.3l-24-10.5c2-5.1,3-10.7,2.8-16.6c0-0.8,0.3-1,1.1-0.7
		C538.1,371.9,547.1,380.4,553.3,392.3z" class="st17"></path>
	<path d="M418,370.6c0.1,2.3-0.6,4.2-1.9,5.6c-1,1.1-0.9,2.8,0.2,3.7c0.1,0.1,0.2,0.2,0.3,0.2
		c9.2,5.9,19,10.6,29.4,14.1c-5.5,21.8-2,42.1,10.4,60.8c-5.8-3.7-10.7-10.4-14.9-20.1c-2.7-6.3-5.3-12.7-7.7-19.2
		c-3.3-8.8-16.5-15.9-24-21c-0.6-0.4-1.3-0.2-1.7,0.3c-0.1,0.1-0.1,0.2-0.2,0.3c-8.3,27.7-4.7,59.9,5.4,86.6
		c0.2,0.7,0.1,1.2-0.4,1.7l-1.3,1.3c-12.1-24.3-16.4-49.9-12.7-76.6c2.2-15.8,3.5-26.7,13.9-36.8C414.7,369.8,416.3,369.5,418,370.6
		z" class="st17"></path>
	<path d="M418,370.6c10.3,1.4,20.2,4.1,29.6,8.1c0.6,0.3,1,0.9,0.8,1.6l-2.4,14c-10.4-3.5-20.2-8.2-29.4-14.1
		c-1.2-0.8-1.6-2.4-0.8-3.7c0.1-0.1,0.1-0.2,0.2-0.3C417.5,374.7,418.1,372.9,418,370.6z" class="st19"></path>
	<path d="M480.4,387c-3,1.3-5.9,3.5-8.6,6.7c-2.4-3.4-3.9-7.4-4.5-11.9c1.6-4.4,4.7-7.5,9.2-9.4
		c0.7-0.3,1.1-0.1,1.3,0.7L480.4,387z" class="st17"></path>
	<path d="M503.4,383.8c-1.8,0.3-3.5,0.2-5.1-0.2c-1.9-2.4-1.9-4.6-0.1-6.7c1.1-1.2,2.4-1.6,4-1.2
		c1.7,0.4,2.9,1.4,3.6,3c0.3,0.7,0.2,1.4-0.2,2L503.4,383.8z" class="st20"></path>
	<path d="M708.4,447.8c0.1-16.5-1.1-30.1-3.4-40.8c-0.5-2.5-2.7-3.7-6.3-3.4l-0.9-1.3c-0.9-1.3-0.6-3.2,0.7-4.1
		c0.8-0.6,1.9-0.7,2.8-0.3l4.2,1.7c0.2,0.1,0.5,0,0.7-0.2s0-0.6-0.2-0.7l-3.3-2c-1.2-0.7-1.4-1.6-0.5-2.7l9.4-12.5
		c0.5-0.7,1.4-0.9,2.2-0.6c3.7,1.7,2.1,6.4,1.9,9.2C714.6,409.4,712.2,428.6,708.4,447.8z" class="st17"></path>
	<path d="M467.3,381.9c0.6,4.5,2.1,8.5,4.5,11.9c5.7,10,15.5,15.8,29.5,17.4c-3.6,1.4-7.6,1.1-11.9-1
		c-0.7-0.3-1.3-0.2-1.6,0.6l-1.8,3.7c-0.2,0.4-0.8,0.6-1.2,0.4c-0.4-0.2-0.5-0.6-0.4-1l1.2-3.8c0.2-0.6,0-1-0.4-1.4
		c-2.7-2.6-5.8-3.8-9.4-3.7c-1.1,0-1.2-0.2-0.2-0.8l0.6-0.4c0.7-0.4,0.7-0.8,0.1-1.3l-5.3-4.7c-0.6-0.5-1.4-0.6-2.1-0.3l-4.6,1.9
		c0.7-1.6,2-2.7,3.8-3.4c0.8-0.3,0.9-0.8,0.5-1.4l-5.5-8.1L467.3,381.9z" class="st18"></path>
	<path d="M676.7,382.1l16.1,0.7c3,0.1,5.4,2.5,5.6,5.4l0.6,6.5c-5.5,7.4-12.4,12.5-20.6,15.4
		c-10.8,2.2-21.9,2.9-33.4,2.2l3.1-10.6c2,1.4,4,2.2,6.1,2.4c6.4,1,11.9-1.1,16.6-6.5c0.2-0.2,0.2-0.6-0.1-0.8c0,0-0.1-0.1-0.2-0.1
		l-13.9-5.5c-2.5,1.6-3.3,0.2-2.4-4.1c0.4-2,2.3-3.3,4.3-2.9c0.3,0.1,0.6,0.2,0.9,0.3c1.5,0.8,2.2,2,2.1,3.8c0,0.4,0.2,0.6,0.6,0.7
		l9.4,1.4c0.8,0.1,1.3-0.2,1.7-0.9L676.7,382.1z" class="st20"></path>
	<path d="M498.3,383.6c1.6,0.5,3.3,0.5,5.1,0.2c3.9-0.3,7,0.5,9.3,2.3c-2.9,0.9-4.5,2.5-4.8,4.9
		c-0.1,0.6,0.3,1.2,0.8,1.5l4.2,2.1c1,0.5,1.3,1.6,0.9,2.6c-0.2,0.4-0.5,0.7-0.9,0.9c-7.3,3.4-14.1,4-20.4,1.7l-7.7-8.7
		c-0.4-0.5-0.5-1.2-0.2-1.8C487.1,384.5,493.5,384.4,498.3,383.6z" class="st15"></path>
	<path d="M522.6,384.2l24,10.5c0,2.3-1.2,4.2-3.7,5.8c-13.4,8.5-27.3,12.1-41.6,10.8c-13.9-1.6-23.8-7.4-29.5-17.4
		c2.7-3.2,5.6-5.5,8.6-6.7c2.8,6.2,6.8,10.4,12,12.7c6.3,2.3,13.1,1.7,20.4-1.7c1-0.4,1.4-1.6,0.9-2.6c-0.2-0.4-0.5-0.7-0.9-0.9
		l-4.2-2.1c-0.5-0.3-0.9-0.9-0.8-1.5c0.3-2.4,1.9-4,4.8-4.9C515.9,387.7,521.5,390.2,522.6,384.2z" class="st20"></path>
	<path d="M463,386.3l5.5,8.1c0.5,0.7,0.3,1.1-0.5,1.4c-1.9,0.7-3.1,1.8-3.8,3.4c-2.7,0.4-5.1-0.7-7.4-3.5L463,386.3z" class="st17"></path>
	<path d="M654.2,404l-4.7-3.6c-1.1-8.3,4.9-4.9,7.1-9.3l13.9,5.5c0.3,0.1,0.4,0.5,0.3,0.8c0,0.1-0.1,0.1-0.1,0.2
		C666.1,402.9,660.6,405.1,654.2,404z" class="st15"></path>
	<path d="M456.6,455c45,56.5,125.2,27.7,137.7-39.6c0.1-0.6,0.4-1.2,0.9-1.6c10.8-9.2,27.4-25.3,37.5-10.2
		c-5.6,14.5-4.2,27.4,4.4,38.8c0.4,0.5,0.9,0.6,1.4,0.3l1.9-1.2c6.4,18.6,25.1,31.8,43.3,37.2c3.2,5.1,7.9,7.6,14.3,7.3
		c-8.9,43.9-48.7,77.9-79,107.8c-7.8,7.7-14.3,12.8-19.7,15.3c-13.6,6.5-27.7,6.7-42.3,0.6c-21.6-9.1-46.8-22.7-75.6-40.8
		c-10.4-7.8-20.8-16.1-31-24.7c-11.2-9.5-19-18.1-23.3-25.7L411.8,485l1.3-1.3c0.5-0.5,0.6-1.1,0.4-1.7
		c-10.1-26.7-13.7-58.9-5.4-86.6c0.2-0.7,0.9-1,1.6-0.8c0.1,0,0.2,0.1,0.3,0.2c7.5,5.1,20.7,12.2,24,21c2.4,6.4,5,12.8,7.7,19.2
		C445.8,444.6,450.8,451.3,456.6,455z M642.6,472.1l-15.2,19.2c-0.1,0.1-0.1,0.2,0,0.3l0,0c1.6,1.2,6.2-2,10.3-7.3l0.5-0.6
		c4.1-5.2,6.2-10.5,4.7-11.7l-0.1,0C642.8,472,642.7,472,642.6,472.1z M612.5,484.3c-2.2-1.6-4.7-2.2-7.4-2c-0.2,0-0.4,0.2-0.4,0.4
		c0,0.2,0.1,0.3,0.3,0.3l8,2.6c0.3,0.1,0.6-0.1,0.7-0.4c0-0.2,0-0.3-0.1-0.5c-0.1-0.2-0.3-0.3-0.5-0.3
		C612.8,484.5,612.6,484.4,612.5,484.3z M562.3,544l0.4,2.9c0,0.3,0.2,0.6,0.4,0.8c16.3,16.3,60.8,20.8,69.6-7.1
		c0.1-0.4,0.4-0.6,0.9-0.6h3.7c0.4,0,0.8-0.3,0.8-0.7c0-0.3-0.2-0.6-0.5-0.7l-7.4-2.7c-0.6-0.2-1.1-0.8-1.1-1.4
		c-0.3-3-1.3-5.7-3.1-8.1c-1.5-2.1-4.3-2.7-6.5-1.5c-7.1,3.9-14.5,4.3-22,1.4c-1.9-0.7-4-0.5-5.6,0.7c-10.8,7.4-22.6,12.7-35.3,15.7
		c-1.9,0.5-1.9,0.9,0,1.2c1.4,0.3,2.8,0.1,4.2-0.5C561.6,542.7,562.2,543,562.3,544z" class="st19"></path>
	<path d="M706.7,470.7c9.2-28.1,24.2-57.9,51.5-72.5c1.2-0.7,1.9-0.3,2.1,1.1c4.6,36.7-16.7,66.5-53,72.2
		C706.7,471.5,706.5,471.3,706.7,470.7z" class="st15"></path>
	<path d="M378.5,398.5c0-0.4,0.2-0.5,0.7-0.4c0.3,0,0.4,0.3,0.4,0.5c0,0.1,0,0.1-0.1,0.2
		c-8.7,13.7-20.2,24.5-34.4,32.4c-0.1,0-0.2,0-0.2-0.1c0-0.1,0-0.1,0-0.2l33.2-31.7C378.4,399,378.5,398.8,378.5,398.5z" class="st17"></path>
	<path d="M649.5,400.5l4.7,3.6c-2-0.1-4-0.9-6.1-2.4C648.4,402,648.8,401.6,649.5,400.5z" class="st18"></path>
	<path d="M219,500.1l24.6-36.7c11.8-12.2,25.9-21.6,42.3-28.2c27.2-10.9,53.5-22.5,77.2-32.1c0.3-0.1,0.7-0.2,1.1-0.1
		c0.6,0.2,0.6,0.4,0,0.6c-54.2,23.8-126.5,55.7-139.6,119.2c-0.2,0.9-0.6,1-1.2,0.3l-8.5-11.1c-0.4-0.5-0.5-1.2-0.2-1.7L219,500.1z" class="st15"></path>
	<path d="M698.7,403.6c3.7-0.3,5.8,0.8,6.3,3.4c2.3,10.7,3.5,24.3,3.4,40.8l-5,22.8c-0.1,0.6-0.5,1-1.2,1
		c-35.4,3-61.8-24-57.2-59.4c11.5,0.7,22.7,0,33.4-2.2l11.5-2.4c0.6-0.1,1.1-0.4,1.5-0.9C692.9,405,695.3,404,698.7,403.6z" class="st19"></path>
	<path d="M632.7,403.6c1.8,2.2,2.7,3.6,2.8,4.4c1.3,11.3,2.9,22.4,4.9,33.4l-1.9,1.2c-0.6,0.4-1,0.3-1.4-0.3
		C628.5,431,627.1,418.1,632.7,403.6z" class="st15"></path>
	<path d="M340.8,444.6l-2.5-2c-1.2-1-1.4-2.7-0.4-3.9c0.3-0.4,0.7-0.7,1.1-0.8c18.3-7.3,34-18.3,47.2-32.8
		c0.5-0.5,0.9-0.5,1.3,0.1c0.4,0.5,0.4,1,0.1,1.4c-12.1,16.9-27.6,29.6-46.4,38.1C341,444.6,340.8,444.6,340.8,444.6z" class="st17"></path>
	<path d="M427.1,518.4c4.3,7.6,12,16.2,23.3,25.7c10.3,8.7,20.6,16.9,31,24.7c18.4,20,35.7,40.6,51.9,62
		c0.4,0.5,0.6,1.1,0.6,1.7c0.2,3.5-0.5,6.8-2.1,10c-0.3,0.7-0.1,1.5,0.6,1.8c0.4,0.2,0.9,0.2,1.3-0.1c21.5-13.4,41.2-24.5,65.1-33.2
		c7-2.5,11.1-5.3,16.5-11.1c10.3-11,21-21.6,32-31.8c8-7.4,19.7-11.2,29.6-15.4c6.3-2.7,12.6-5.3,19-7.8c0.6-0.2,1.3-0.9,1.7-1.5
		c0.2-0.3,0.1-0.8-0.2-1c-0.2-0.1-0.5-0.1-0.7,0l-20.7,10c-2.2-1.4-3.1-4.1-2.5-7.9c0.3-2,1.2-4.5,2.8-7.3
		c5.9-10.5,11.8-21.1,17.7-31.7c0.2-0.4,0.7-0.5,1.1-0.3c0.1,0.1,0.2,0.2,0.3,0.3c4.9,9.3,10.5,18.3,16.6,27
		c6.9,9.9,18.5,6.9,22.1,20.5c1.9,7,4.7,13.1,8.6,18.1c12.9,3.7,14.8,8.6,21.4,19.2l1.2,7c-10.5-8.8-11.6-16-27.5-17.3
		c-0.7-0.1-1.3,0.1-1.9,0.5c-5.6,4.1-9.2,10.4-16.6,11.5c-32.8,4.8-55,7.5-66.4,8.1c-8,0.4-14.6,1.3-20,2.7
		c-0.6,0.2-1.2,0.6-1.5,1.2c-5.2,9.8-12.9,16.8-23.1,21c-18.8,7.8-37.7,15.4-56.6,22.9c-5.1,2-9.3,5.2-12.7,9.6
		c-2.7-4.5-5.7-7.9-8.9-9.9c-0.5-0.3-1.1-0.4-1.7-0.3c-6.5,1-12.1,3.7-16.7,8.1c-0.5,0.5-0.9,1.2-0.9,2c-0.1,4.1,1.6,7.4,5.2,9.8
		l-2.3,0c-0.4,0-0.8,0.3-0.8,0.8c0,0.3,0.2,0.6,0.5,0.7l12.2,6.3c0.1,0,0.1,0.1,0.1,0.2c-0.1,0.1-0.2,0.3-0.3,0.4
		c-1.6-0.3-3.1-0.8-4.7-1.4c-46-20.2-87.8-47.4-125.5-81.4c3.1-9.4,3.8-19.7,2.1-31c-0.7-4.8-11.6-24.1-9.6-30.5
		c4.4-14.1,8.2-28.2,11.4-42.3c0.1-0.6,0.7-0.9,1.3-0.8c0.3,0.1,0.6,0.3,0.7,0.5c3.1,5.3,7.8,10.6,10.5,16c0.2,0.4,0.5,0.6,0.9,0.6
		c0.6,0,0.7-0.2,0.4-0.7c-6.1-9.7-11-20-14.8-30.9c-1-2.9-3-3.9-5.9-3c-22.9,6.6-39.8-2.3-50.5-22.7c-0.3-0.5-0.1-0.9,0.4-1.1
		c17.9-8.2,32.8-20.1,44.6-35.8c0.2-0.2,0.5-0.3,0.8-0.1c0.1,0.1,0.2,0.2,0.2,0.3c5.1,34.3,17.3,73.2,36.6,102.3
		C425.2,514.8,426.2,516.5,427.1,518.4z M613,605.5l8.9-2.2c0.1,0,0.1-0.1,0.1-0.2c0,0,0,0,0,0c-0.1-0.2-0.1-0.4-0.2-0.6
		c-0.3-0.7-0.8-1-1.5-0.7l-7.7,2.7c-0.3,0.1-0.4,0.4-0.4,0.7S612.7,605.6,613,605.5z" class="st17"></path>
	<path d="M585.6,411.1c-0.8,17.5-6.3,31.7-16.4,42.4c-5.1-0.6-6.9-3.8-5.2-9.5C567.9,430.9,575.1,419.9,585.6,411.1z" class="st15"></path>
	<circle r="1.5" cy="430.4" cx="472.4" class="st18"></circle>
	<path d="M153.8,443.6c-0.6,11.9,0.7,23.5,4,34.9c0.2,0.5,0,1-0.5,1.1c-0.5,0.2-1,0-1.1-0.5
		c-6.1-11.4-7.2-23.3-3.6-35.8c0.1-0.3,0.5-0.5,0.8-0.4C153.6,443.2,153.8,443.4,153.8,443.6z" class="st15"></path>
	<path d="M777.2,460.6c0-0.2,0.2-0.3,0.4-0.3c0.1,0,0.2,0.1,0.3,0.3c3,14.9,2,28.7,6.5,43.5c0.1,0.3-0.1,0.6-0.4,0.7
		c-0.2,0.1-0.4,0-0.6-0.1C772.2,493.7,775.4,475.6,777.2,460.6z" class="st15"></path>
	<path d="M243.6,463.4L219,500.1C223.4,485.1,231.6,472.9,243.6,463.4z" class="st18"></path>
	<path d="M642.6,472.1c0.1-0.1,0.2-0.1,0.3,0l0.1,0c1.5,1.2-0.5,6.5-4.7,11.7l-0.5,0.6c-4.1,5.2-8.8,8.5-10.3,7.3l0,0
		c-0.1-0.1-0.1-0.2,0-0.3L642.6,472.1z" class="st17"></path>
	<path d="M683.7,478.6l15,1.5c0.8,0.1,1.1,0.5,1,1.2c-0.1,1.2-0.7,2.7-1.8,4.6C691.6,486.1,686.9,483.7,683.7,478.6z" class="st17"></path>
	<path d="M613,484.5c0.2,0,0.4,0.1,0.5,0.3c0.2,0.2,0.1,0.6-0.1,0.8c-0.1,0.1-0.3,0.1-0.5,0.1l-8-2.6
		c-0.2-0.1-0.3-0.3-0.2-0.5c0-0.1,0.2-0.3,0.3-0.3c2.7-0.2,5.2,0.5,7.4,2C612.6,484.4,612.8,484.5,613,484.5z" class="st18"></path>
	<path d="M776.1,510.5c-0.2,0.1-0.4,0-0.4-0.2c0,0,0,0,0,0l-2.1-5.6c-3.3-8.8-5.5-16.1-5-16.3c0,0,0,0,0,0l0.8-0.3
		c0.5-0.2,3.5,6.8,6.8,15.6l2.1,5.6c0.1,0.2,0,0.4-0.2,0.4c0,0,0,0,0,0L776.1,510.5z" class="st15"></path>
	<path d="M560.7,543.1c-1.4,0.6-2.8,0.7-4.2,0.5c-2-0.3-2-0.7,0-1.2c12.7-3,24.5-8.2,35.3-15.7
		c1.7-1.1,3.8-1.4,5.6-0.7c7.5,2.9,14.9,2.5,22-1.4c2.2-1.2,5-0.5,6.5,1.5c1.7,2.5,2.8,5.2,3.1,8.1c0.1,0.6,0.5,1.2,1.1,1.4l7.4,2.7
		c0.4,0.1,0.6,0.6,0.5,1c-0.1,0.3-0.4,0.5-0.7,0.5h-3.7c-0.5,0-0.7,0.2-0.9,0.6c-8.8,27.9-53.3,23.4-69.6,7.1
		c-0.2-0.2-0.3-0.5-0.4-0.8l-0.4-2.9C562.2,543,561.6,542.7,560.7,543.1z M625.7,535.7l-0.4-1.3c0-0.2-0.3-0.3-0.5-0.3c0,0,0,0,0,0
		l-0.4,0.1c-10.2,2.8-18.3,5.6-18.1,6.2c0,0,0,0,0,0l0,0c0.2,0.6,8.5-1.3,18.7-4.1c0,0,0,0,0,0l0.4-0.1
		C625.6,536.1,625.8,535.9,625.7,535.7z" class="st17"></path>
	<path d="M625.7,535.7c0.1,0.2-0.1,0.4-0.3,0.5l-0.4,0.1c-10.2,2.8-18.5,4.7-18.7,4.1c0,0,0,0,0,0l0,0
		c-0.2-0.6,8-3.3,18.1-6.2c0,0,0,0,0,0l0.4-0.1c0.2-0.1,0.4,0.1,0.5,0.3c0,0,0,0,0,0L625.7,535.7z" class="st18"></path>
	<path d="M677.1,552.6c-0.3-0.1-0.6-0.2-0.9-0.3l20.7-10c0.4-0.2,0.8,0,1,0.4c0.1,0.2,0.1,0.5,0,0.7
		c-0.3,0.5-1,1.2-1.7,1.5C689.7,547.3,683.4,549.9,677.1,552.6z" class="st18"></path>
	<path d="M364.6,563.4L322,585.5c8-13.1,16.3-24.9,24.9-35.4c0.4-0.5,1.2-0.8,1.8-0.6
		C355.5,551.2,360.8,555.9,364.6,563.4z" class="st15"></path>
	<path d="M394.3,590.7c-1.1-0.3-1.9-0.4-2.6-0.2c-0.6,0.1-1.1,0.7-1.5,1.7c-2.5,6.4-6.4,10.6-11.9,12.8
		c8-15.2,12.3-30.9,12.8-47.1c0-0.5-0.1-1-0.4-1.5c-0.3-0.5-0.4-1.1-0.2-1.7c0.2-0.9,0.6-1,1-0.1C397,566.2,397.9,578.2,394.3,590.7
		z" class="st17"></path>
	<path d="M395.3,592.6c37.7,34.1,79.5,61.2,125.5,81.4c1.5,0.7,3.1,1.1,4.7,1.4c1.1,0,1.4-0.1,0.8-0.4
		c6.9,4,13.8,5.7,20.7,5.1c0.2,1.4,0.2,2.3,0.1,2.6c-16.9,32.3-32.5,65.2-46.9,98.7c-4.3,10,0,20.4,2.3,30.3
		c0.5,2.4-0.4,3.6-2.8,3.6c-2.1,0-4.7-0.7-7.7-2.2c-20-9.9-39.2-21.2-57.7-33.8c-0.1,0-0.1,0-0.1,0.1c0,0,0,0.1,0,0.1
		c31.9,34.1,59.1,71.7,81.7,112.7c26.7,48.3,48.2,92.2,64.7,131.6H359.5c-6.4-4-12.4-9.4-17.8-16c-0.1-0.1-0.3-0.2-0.4-0.1
		c-0.2,0.1-0.4,0.1-0.6,0.2c-0.2,0.1-0.3,0.2-0.2,0.4l6.8,15.5H240.1c-29.2-34.9-74.3-47.4-115-61.9c-0.5-0.2-1.1,0.1-1.3,0.6
		c-0.1,0.2-0.1,0.5,0,0.7l22.8,60.6H40.2c6.6-82,38.4-159.1,88.4-223.8c42.1-54.5,92-96.6,137.5-142c9.2-9.2,18.2-19.9,26.9-32.3
		l29-40.4l42.6-22.1c2.6,16.2-2.2,30.3-14.4,42.3c-0.1,0.1-0.1,0.2,0.1,0.3c0,0,0.1,0,0.1,0c0.1,0,0.1,0,0.2,0
		c13.2-10.7,21.5-30.4,16-47.9c-0.1-0.3,0.1-0.6,0.4-0.6c0.2-0.1,0.4,0,0.5,0.1c18.4,20.4,7.9,52.2-8.3,70.7
		c-0.1,0.2-0.2,0.3-0.1,0.5c0,0.1,0.1,0.1,0.1,0.1c0,0.1,0.1,0.1,0.2,0c0,0,0,0,0,0c2.7-2.3,4.7-3.7,5.8-4.3
		C378.4,618.2,388.5,607.6,395.3,592.6z M310.1,698.5c3.6,2.1,6.8,4.3,10.4,6c30.3,14.7,58.6,32.7,84.9,53.8
		c0.3,0.2,0.4,0.2,0.3-0.2c-0.1-0.3-0.2-0.6-0.6-0.9c-28.5-23.7-59.6-43.1-93.3-58.4c-0.3-0.1-0.6-0.4-0.8-0.7c-0.2-0.4-0.6-0.4-1,0
		C310.1,698.2,310,698.3,310.1,698.5C310.1,698.5,310.1,698.5,310.1,698.5z" class="st20"></path>
	<path d="M752.6,562.9c16.5,8.5,34.6,9.5,54,3c0.4-0.1,0.4-0.1,0.1,0.2c-11.8,11.4-26,19.5-42.6,24.1
		c-6.6-10.6-8.5-15.5-21.4-19.2C746.1,567.1,749.4,564.4,752.6,562.9z" class="st18"></path>
	<path d="M293.6,587.3c-3,15.1-44.5-9.9-43.1-21.6c0.1-0.7,0.4-0.8,0.8-0.2c10.2,13.9,24.1,20.9,41.6,21
		C293.5,586.5,293.7,586.7,293.6,587.3z" class="st15"></path>
	<path d="M261.7,588.3c-4.9-4.1-8.5-9.2-10.7-15.2c-0.1-0.2,0-0.5,0.2-0.6s0.5,0,0.6,0.2l0,0c9,12.3,21,19.6,36.2,21.8
		c0.6,0.1,1,0.6,0.9,1.2c0,0.2-0.2,0.5-0.3,0.6C282.6,601.8,266.6,592.4,261.7,588.3z" class="st15"></path>
	<path d="M765.4,597.2c27.7,68.2,55.8,136.3,84.1,204.5c6,14.4,8.1,27.4,7,41.9c-4.4,56.9-11.5,117.1-21.5,180.5H729.8
		l24.1-135.1c15.7-16.2,40.1-39.8,51.4-63.1c0.4-0.7,0.1-1.2-0.7-1.3c-19.3-3.1-39.5-10.9-52.4-26.1c-17-20.1-23.8-41.6-33.2-64
		l-8-22.6l12.1-23.9c0.3-0.7,0.1-1.5-0.6-1.8c-0.3-0.2-0.7-0.2-1-0.1L706,691c-15.1,4-29.5,9.2-43.2,15.8
		c-17.5,14.7-34.3,29.8-50.6,45.2c-6.4,6.1-14.1,11.5-21.1,15.1c-0.6,0.3-1.5,0.4-2.5,0.3c-0.7-0.1-0.8-0.3-0.1-0.7
		c7.4-4.5,20.6-15.8,20-25.4c0-0.7-0.3-1.2-0.7-1.7c-3.7-3.9-8-4.8-13-2.6c-1.1,0.5-1.3,0.2-0.6-0.7l44.2-57.9
		c16.8-12,37.8-20.6,56-30.9l13.4-8c0.4-0.3,0.4-0.5,0-0.8c-0.3-0.2-0.5-0.3-0.8-0.2c-5.1,1.7-10.4,2.4-16,2.1
		c-20,1-40.1,2.1-60.2,3.4c-31.3,1.9-57.2,16.8-84.9,26.1c-5.8,1.9-13.1,2.8-19.6,5.1c0.6,0.3,0.4,0.4-0.8,0.4
		c0.1-0.2,0.2-0.3,0.3-0.4c0-0.1,0-0.1-0.1-0.2l-12.2-6.3c-0.4-0.2-0.6-0.7-0.4-1.1c0.1-0.3,0.4-0.5,0.7-0.5l2.3,0
		c7.6,4,19.2-4,23-9.6c3.4-4.4,7.6-7.6,12.7-9.6c18.9-7.5,37.8-15.1,56.6-22.9c10.2-4.2,17.9-11.2,23.1-21c0.3-0.6,0.8-1,1.5-1.2
		c5.4-1.4,12-2.3,20-2.7c11.5-0.6,33.6-3.3,66.4-8.1c7.4-1.1,11-7.4,16.6-11.5c0.5-0.4,1.2-0.6,1.9-0.5
		C753.8,581.2,754.9,588.3,765.4,597.2z" class="st19"></path>
	<path d="M394.3,590.7c-4.7,12.9-13.3,23-25.6,30.6c-0.4,0.2-0.9,0.1-1.1-0.3c-0.2-0.3-0.2-0.6,0-0.9l10.7-15.1
		c5.4-2.1,9.4-6.4,11.9-12.8c0.4-1,0.9-1.6,1.5-1.7C392.4,590.4,393.2,590.4,394.3,590.7z" class="st19"></path>
	<path d="M613,605.5c-0.3,0.1-0.6-0.1-0.7-0.4s0.1-0.6,0.4-0.7l7.7-2.7c0.7-0.3,1.2,0,1.5,0.7c0.1,0.2,0.1,0.4,0.2,0.6
		c0,0.1,0,0.2-0.1,0.2c0,0,0,0,0,0L613,605.5z" class="st18"></path>
	<path d="M694.3,647.4l-3.4-6.8c5.6,0.3,10.9-0.4,16-2.1c0.3-0.1,0.6,0,0.8,0.2c0.4,0.3,0.4,0.5,0,0.8L694.3,647.4z" class="st17"></path>
	<path d="M690.9,640.5l3.4,6.8c-18.2,10.3-39.2,18.8-56,30.9c-3.4-4.7-7.8-8.7-12.9-12.1c-0.6-0.4-1.2-0.4-1.8,0.1
		l-37.4,32.4c8.4-8.6,33.1-31.6,35.3-42.3c2.8-14-28.9-2.1-34.2,0.9c-6.8,3.9-8.8,11-16.8,14.8c-10.2,0.5-18.1,3.2-23.5,8.1
		c-6.9,0.5-13.8-1.2-20.7-5.1c6.5-2.3,13.9-3.2,19.6-5.1c27.8-9.3,53.7-24.2,84.9-26.1C650.9,642.7,670.9,641.6,690.9,640.5z" class="st16"></path>
	<path d="M539.1,657.4c-3.9,5.6-15.4,13.6-23,9.6c-3.6-2.4-5.3-5.6-5.2-9.8c0-0.8,0.3-1.5,0.9-2
		c4.6-4.5,10.2-7.2,16.7-8.1c0.6-0.1,1.2,0,1.7,0.3C533.5,649.5,536.4,652.8,539.1,657.4z" class="st15"></path>
	<path d="M586.1,698.7c-7,5.4-14.6,9.8-22.8,13.2c-0.6,0.3-1.3,0.3-1.9,0.1c-3.1-0.9-5.8-2.5-8.1-4.9
		c-0.9-1-0.9-1.9,0.1-2.9c0.5-0.4,0.7-1.1,0.5-1.7l-0.9-4.2l7.2-8.8c1.1-5.3,4.3-10,9.6-14.1c0.9-0.7,1.1-1.8,0.5-3.2
		c8-3.8,10-10.9,16.8-14.8c5.3-3,37-15,34.2-0.9C619.2,667,594.5,690.1,586.1,698.7z" class="st17"></path>
	<path d="M638.3,678.3l-44.2,57.9c-0.7,1-0.5,1.2,0.6,0.7c5-2.1,9.3-1.3,13,2.6c0.5,0.5,0.7,1.1,0.7,1.7
		c0.6,9.6-12.6,20.9-20,25.4c-0.6,0.4-0.6,0.6,0.1,0.7c1,0.1,1.9,0,2.5-0.3c7.1-3.6,14.7-9,21.1-15.1c16.3-15.4,33.1-30.5,50.6-45.2
		c8.4,15.4,18.1,29,29.1,40.8c11.8,12.7,26.9,23.2,40.5,34c6,4.8,26.5,24.2,27.6,36.4c2.1,22.9-3.1,47.9-6.1,70.9L729.8,1024H580.3
		c-16.5-39.4-38-83.3-64.7-131.6c-22.6-41-49.9-78.6-81.7-112.7c0,0,0-0.1,0-0.1c0,0,0.1,0,0.1,0c18.4,12.6,37.6,23.9,57.7,33.8
		c3.1,1.5,5.7,2.3,7.7,2.2c2.4,0,3.4-1.2,2.8-3.6c-2.2-9.9-6.6-20.3-2.3-30.3c14.4-33.5,30.1-66.4,46.9-98.7
		c0.2-0.4,0.2-1.3-0.1-2.6c5.4-4.9,13.3-7.6,23.5-8.1c0.6,1.5,0.4,2.5-0.5,3.2c-5.3,4.1-8.6,8.8-9.6,14.1c-4.1,2.7-6.5,5.6-7.2,8.8
		l0.9,4.2c0.1,0.6-0.1,1.2-0.5,1.7c-1,0.9-1.1,1.9-0.1,2.9c2.3,2.4,5,4,8.1,4.9c0.6,0.2,1.3,0.1,1.9-0.1c8.2-3.4,15.8-7.9,22.8-13.2
		l37.4-32.4c0.6-0.5,1.2-0.5,1.8-0.1C630.5,669.5,634.9,673.6,638.3,678.3z" class="st15"></path>
	<path d="M711.1,711.8L706,691l15.6-5.1c0.7-0.2,1.5,0.1,1.7,0.9c0.1,0.3,0.1,0.7-0.1,1L711.1,711.8z" class="st17"></path>
	<path d="M560.3,689.5l-7.2,8.8C553.8,695.1,556.2,692.2,560.3,689.5z" class="st18"></path>
	<path d="M706,691l5.1,20.8l8,22.6c-6.6-7.6-13.9-13.6-21.9-18c-11.2-6.2-21,4.6-15.2,15.6c1.9,3.7,5.2,8.9,9.9,15.5
		c-11-11.8-20.7-25.4-29.1-40.8C676.5,700.2,690.9,695,706,691z" class="st16"></path>
	<path d="M310.1,698.5c-0.1,0-0.1-0.2-0.1-0.3c0,0,0,0,0.1-0.1c0.5-0.3,0.8-0.3,1,0c0.2,0.3,0.4,0.6,0.8,0.7
		c33.7,15.3,64.8,34.7,93.3,58.4c0.3,0.3,0.5,0.6,0.6,0.9c0.1,0.4,0,0.4-0.3,0.2c-26.3-21.1-54.6-39.1-84.9-53.8
		C317,702.8,313.8,700.5,310.1,698.5z" class="st15"></path>
	<path d="M719.1,734.4c9.3,22.4,16.2,44,33.2,64c12.9,15.2,33.1,23,52.4,26.1c0.8,0.1,1,0.5,0.7,1.3
		c-11.3,23.3-35.7,46.9-51.4,63.1c3-23.1,8.2-48.1,6.1-70.9c-1.1-12.2-21.6-31.6-27.6-36.4c-13.6-10.8-28.7-21.3-40.5-34
		c-4.7-6.7-7.9-11.9-9.9-15.5c-5.8-11,4-21.7,15.2-15.6C705.3,720.8,712.6,726.8,719.1,734.4z" class="st17"></path>
	<path d="M240.1,1024h-93.5l-22.8-60.6c-0.2-0.5,0.1-1.1,0.6-1.3c0.2-0.1,0.5-0.1,0.7,0
		C165.7,976.6,210.9,989.1,240.1,1024z" class="st15"></path>
	<path d="M359.5,1024h-12.2l-6.8-15.5c-0.1-0.2,0-0.3,0.2-0.4c0.2-0.1,0.4-0.1,0.6-0.2c0.2-0.1,0.3,0,0.4,0.1
		C347.1,1014.6,353.1,1020,359.5,1024z" class="st15"></path>
</g>
</svg>
