<?xml version="1.0" standalone="no"?><!DOCTYPE svg PUBLIC "-//W3C//DTD SVG 1.1//EN" "http://www.w3.org/Graphics/SVG/1.1/DTD/svg11.dtd"><svg height="596" node-id="1" sillyvg="true" template-height="596" template-width="636" version="1.1" viewBox="0 0 636 596" width="636" xmlns="http://www.w3.org/2000/svg" xmlns:xlink="http://www.w3.org/1999/xlink"><defs node-id="76"></defs><path d="M 127.12 158.84 L 529.09 158.84 L 529.09 259.65 L 127.12 259.65 Z" fill="#ffee1c" fill-rule="nonzero" node-id="78" stroke="#231815" stroke-linecap="butt" stroke-width="0.66" target-height="100.81" target-width="401.97003" target-x="127.12" target-y="158.84"></path><path d="M 529.09 428.26 C 529.09 482.14 439.10 525.82 328.10 525.82 C 217.10 525.82 127.11 482.14 127.11 428.26 C 127.11 374.38 217.10 330.70 328.10 330.70 C 439.10 330.70 529.09 374.38 529.09 428.26 Z" fill="#ff3342" fill-rule="nonzero" node-id="80" stroke="none" target-height="195.12" target-width="401.98004" target-x="127.11" target-y="330.7"></path><path d="M 529.09 375.82 C 529.09 429.70 439.10 473.38 328.10 473.38 C 217.10 473.38 127.11 429.70 127.11 375.82 C 127.11 321.94 217.10 278.26 328.10 278.26 C 439.10 278.26 529.09 321.94 529.09 375.82 Z" fill="#f8ffff" fill-rule="nonzero" node-id="82" stroke="#231815" stroke-linecap="butt" stroke-width="0.66" target-height="195.12" target-width="401.98004" target-x="127.11" target-y="278.26"></path><path d="M 529.09 321.68 C 529.09 375.56 439.10 419.24 328.10 419.24 C 217.10 419.24 127.11 375.56 127.11 321.68 C 127.11 267.80 217.10 224.12 328.10 224.12 C 439.10 224.12 529.09 267.80 529.09 321.68 Z" fill="#ffee1c" fill-rule="nonzero" node-id="84" stroke="#231815" stroke-linecap="butt" stroke-width="0.75" target-height="195.12" target-width="401.98004" target-x="127.11" target-y="224.12"></path><path d="M 529.09 283.17 C 529.09 337.05 439.10 380.73 328.10 380.73 C 217.10 380.73 127.11 337.05 127.11 283.17 C 127.11 229.29 217.10 185.61 328.10 185.61 C 439.10 185.61 529.09 229.29 529.09 283.17 Z" fill="#ffe000" fill-rule="nonzero" node-id="86" stroke="none" target-height="195.12001" target-width="401.98004" target-x="127.11" target-y="185.61"></path><path d="M 529.09 321.19 C 529.09 389.88 439.10 445.56 328.10 445.56 C 217.10 445.56 127.11 389.88 127.11 321.19 C 127.11 252.50 217.10 196.82 328.10 196.82 C 439.10 196.82 529.09 252.50 529.09 321.19 Z" fill="none" node-id="88" stroke="#ffee1c" stroke-linecap="butt" stroke-width="1.48" target-height="248.73999" target-width="401.98004" target-x="127.11" target-y="196.82"></path><path d="M 528.13 312.37 C 528.13 366.25 438.14 409.93 327.14 409.93 C 216.14 409.93 126.15 366.25 126.15 312.37 C 126.15 258.49 216.14 214.81 327.14 214.81 C 438.14 214.81 528.13 258.49 528.13 312.37 Z" fill="none" node-id="90" stroke="#ffffff" stroke-linecap="butt" stroke-width="1.31" target-height="195.12" target-width="401.98" target-x="126.15" target-y="214.81"></path><path d="M 528.13 305.47 C 528.13 359.35 438.14 403.03 327.14 403.03 C 216.14 403.03 126.15 359.35 126.15 305.47 C 126.15 251.59 216.14 207.91 327.14 207.91 C 438.14 207.91 528.13 251.59 528.13 305.47 Z" fill="none" node-id="92" stroke="#ffffff" stroke-linecap="butt" stroke-width="1.31" target-height="195.12" target-width="401.98" target-x="126.15" target-y="207.91"></path><path d="M 528.13 297.07 C 528.13 350.95 438.14 394.63 327.14 394.63 C 216.14 394.63 126.15 350.95 126.15 297.07 C 126.15 243.19 216.14 199.51 327.14 199.51 C 438.14 199.51 528.13 243.19 528.13 297.07 Z" fill="none" node-id="94" stroke="#ffffff" stroke-linecap="butt" stroke-width="1.31" target-height="195.12001" target-width="401.98" target-x="126.15" target-y="199.51"></path><path d="M 528.13 283.17 C 528.13 337.05 438.14 380.73 327.14 380.73 C 216.14 380.73 126.15 337.05 126.15 283.17 C 126.15 229.29 216.14 185.61 327.14 185.61 C 438.14 185.61 528.13 229.29 528.13 283.17 Z" fill="none" node-id="96" stroke="#ffffff" stroke-linecap="butt" stroke-width="1.31" target-height="195.12001" target-width="401.98" target-x="126.15" target-y="185.61"></path><path d="M 529.09 259.65 C 529.09 313.53 439.10 357.21 328.10 357.21 C 217.10 357.21 127.11 313.53 127.11 259.65 C 127.11 205.77 217.10 162.09 328.10 162.09 C 439.10 162.09 529.09 205.77 529.09 259.65 Z" fill="#4dabff" fill-rule="nonzero" node-id="98" stroke="#231815" stroke-linecap="butt" stroke-width="0.66" target-height="195.12" target-width="401.98004" target-x="127.11" target-y="162.09"></path><path d="M 529.09 240.80 C 529.09 294.68 439.10 338.36 328.10 338.36 C 217.10 338.36 127.11 294.68 127.11 240.80 C 127.11 186.92 217.10 143.24 328.10 143.24 C 439.10 143.24 529.09 186.92 529.09 240.80 Z" fill="none" node-id="100" stroke="#ffffff" stroke-linecap="butt" stroke-width="1.31" target-height="195.11998" target-width="401.98004" target-x="127.11" target-y="143.24"></path><path d="M 529.09 224.60 C 529.09 278.48 439.10 322.16 328.10 322.16 C 217.10 322.16 127.11 278.48 127.11 224.60 C 127.11 170.72 217.10 127.04 328.10 127.04 C 439.10 127.04 529.09 170.72 529.09 224.60 Z" fill="none" node-id="102" stroke="#ffffff" stroke-linecap="butt" stroke-width="1.31" target-height="195.12" target-width="401.98004" target-x="127.11" target-y="127.04"></path><path d="M 529.09 210.40 C 529.09 264.28 439.10 307.96 328.10 307.96 C 217.10 307.96 127.11 264.28 127.11 210.40 C 127.11 156.52 217.10 112.84 328.10 112.84 C 439.10 112.84 529.09 156.52 529.09 210.40 Z" fill="none" node-id="104" stroke="#ffffff" stroke-linecap="butt" stroke-width="1.31" target-height="195.12" target-width="401.98004" target-x="127.11" target-y="112.84"></path><path d="M 529.09 195.33 C 529.09 249.21 439.10 292.89 328.10 292.89 C 217.10 292.89 127.11 249.21 127.11 195.33 C 127.11 141.45 217.10 97.77 328.10 97.77 C 439.10 97.77 529.09 141.45 529.09 195.33 Z" fill="none" node-id="106" stroke="#ffffff" stroke-linecap="butt" stroke-width="1.31" target-height="195.12003" target-width="401.98004" target-x="127.11" target-y="97.77"></path><path d="M 529.09 195.33 C 529.09 249.21 439.10 292.89 328.10 292.89 C 217.10 292.89 127.11 249.21 127.11 195.33 C 127.11 141.45 217.10 97.77 328.10 97.77 C 439.10 97.77 529.09 141.45 529.09 195.33 Z" fill="#0086ff" fill-rule="nonzero" node-id="108" stroke="none" target-height="195.12003" target-width="401.98004" target-x="127.11" target-y="97.77"></path><path d="M 529.09 163.05 C 529.09 216.93 439.10 260.61 328.10 260.61 C 217.10 260.61 127.11 216.93 127.11 163.05 C 127.11 109.17 217.10 65.49 328.10 65.49 C 439.10 65.49 529.09 109.17 529.09 163.05 Z" fill="#f8ffff" fill-rule="nonzero" node-id="110" stroke="#231815" stroke-linecap="butt" stroke-width="0.66" target-height="195.12" target-width="401.98004" target-x="127.11" target-y="65.49"></path><path d="M 265.67 105.41 C 267.45 106.55 274.95 111.83 271.31 117.35 C 271.31 117.35 264.48 121.15 262.09 117.03 C 259.33 112.28 263.89 111.86 265.26 109.62 C 265.99 108.38 266.08 106.87 265.49 105.56 C 265.46 105.51 265.48 105.45 265.52 105.41 C 265.56 105.38 265.63 105.38 265.67 105.41 Z" fill="#ff3342" fill-rule="nonzero" node-id="112" stroke="none" target-height="15.774399" target-width="15.620026" target-x="259.33" target-y="105.3756"></path><path d="M 271.00 157.62 L 262.54 157.62 C 261.74 157.62 261.09 156.97 261.09 156.17 L 261.09 120.64 C 261.09 117.50 263.80 116.15 266.94 116.15 L 266.94 116.15 C 270.08 116.15 272.45 117.50 272.45 120.64 L 272.45 156.17 C 272.45 156.97 271.80 157.62 271.00 157.62 Z" fill="#4dabff" fill-rule="nonzero" node-id="114" stroke="none" target-height="41.469994" target-width="11.360016" target-x="261.09" target-y="116.15"></path><path d="M 377.06 105.41 C 378.85 106.55 386.35 111.83 382.71 117.35 C 382.71 117.35 375.88 121.15 373.49 117.03 C 370.73 112.28 375.29 111.86 376.66 109.62 C 377.39 108.38 377.47 106.87 376.88 105.56 C 376.85 105.51 376.87 105.45 376.91 105.41 C 376.95 105.38 377.02 105.38 377.06 105.41 Z" fill="#ff3342" fill-rule="nonzero" node-id="116" stroke="none" target-height="15.774399" target-width="15.619995" target-x="370.73" target-y="105.3756"></path><path d="M 382.38 157.62 L 373.93 157.62 C 373.54 157.62 373.17 157.47 372.90 157.20 C 372.62 156.93 372.47 156.56 372.47 156.17 L 372.47 120.64 C 372.47 117.50 375.19 116.15 378.33 116.15 L 378.33 116.15 C 381.47 116.15 383.84 117.50 383.84 120.64 L 383.84 156.17 C 383.84 156.56 383.69 156.93 383.41 157.20 C 383.14 157.47 382.77 157.62 382.38 157.62 Z" fill="#4dabff" fill-rule="nonzero" node-id="118" stroke="none" target-height="41.472664" target-width="11.369995" target-x="372.47" target-y="116.15"></path><path d="M 394.00 160.47 C 397.74 167.07 396.05 175.42 390.05 180.06 C 352.60 208.77 300.51 208.69 263.15 179.86 C 257.17 175.21 255.51 166.89 259.24 160.30 L 319.64 53.52 C 321.05 50.97 323.73 49.39 326.64 49.39 C 329.55 49.39 332.23 50.97 333.64 53.52 Z" fill="#ffee1c" fill-rule="nonzero" node-id="120" stroke="#231815" stroke-linecap="butt" stroke-width="0.56" target-height="159.38095" target-width="142.22946" target-x="255.50745" target-y="49.392982"></path><path d="M 162.32 376.39 C 162.32 383.18 156.81 388.69 150.02 388.69 C 143.23 388.69 137.72 383.18 137.72 376.39 C 137.72 369.60 143.23 364.09 150.02 364.09 C 156.81 364.09 162.32 369.60 162.32 376.39 Z" fill="#ff7900" fill-rule="nonzero" node-id="122" stroke="#231815" stroke-linecap="butt" stroke-width="0.59" target-height="24.600006" target-width="24.600006" target-x="137.72" target-y="364.09"></path><path d="M 191.50 400.82 C 191.50 407.61 185.99 413.12 179.20 413.12 C 172.41 413.12 166.90 407.61 166.90 400.82 C 166.90 394.03 172.41 388.52 179.20 388.52 C 185.99 388.52 191.50 394.03 191.50 400.82 Z" fill="#ffee1c" fill-rule="nonzero" node-id="124" stroke="#231815" stroke-linecap="butt" stroke-width="0.75" target-height="24.600006" target-width="24.600006" target-x="166.9" target-y="388.52"></path><path d="M 227.33 419.93 C 227.33 426.72 221.82 432.23 215.03 432.23 C 208.24 432.23 202.73 426.72 202.73 419.93 C 202.73 413.14 208.24 407.63 215.03 407.63 C 221.82 407.63 227.33 413.14 227.33 419.93 Z" fill="#e0f400" fill-rule="nonzero" node-id="126" stroke="#231815" stroke-linecap="butt" stroke-width="0.66" target-height="24.600006" target-width="24.600006" target-x="202.73" target-y="407.63"></path><path d="M 269.13 432.24 C 269.13 439.03 263.62 444.54 256.83 444.54 C 250.04 444.54 244.53 439.03 244.53 432.24 C 244.53 425.45 250.04 419.94 256.83 419.94 C 263.62 419.94 269.13 425.45 269.13 432.24 Z" fill="#4dabff" fill-rule="nonzero" node-id="128" stroke="#231815" stroke-linecap="butt" stroke-width="0.66" target-height="24.600006" target-width="24.600006" target-x="244.53" target-y="419.94"></path><path d="M 524.13 374.45 C 524.13 381.24 518.62 386.75 511.83 386.75 C 505.04 386.75 499.53 381.24 499.53 374.45 C 499.53 367.66 505.04 362.15 511.83 362.15 C 518.62 362.15 524.13 367.66 524.13 374.45 Z" fill="#e0f400" fill-rule="nonzero" node-id="130" stroke="#231815" stroke-linecap="butt" stroke-width="0.66" target-height="24.600006" target-width="24.600006" target-x="499.53" target-y="362.15"></path><path d="M 492.49 400.78 C 492.49 407.57 486.98 413.08 480.19 413.08 C 473.40 413.08 467.89 407.57 467.89 400.78 C 467.89 393.99 473.40 388.48 480.19 388.48 C 486.98 388.48 492.49 393.99 492.49 400.78 Z" fill="#4dabff" fill-rule="nonzero" node-id="132" stroke="#231815" stroke-linecap="butt" stroke-width="0.66" target-height="24.599976" target-width="24.599976" target-x="467.89" target-y="388.48"></path><path d="M 456.24 419.09 C 456.24 425.88 450.73 431.39 443.94 431.39 C 437.15 431.39 431.64 425.88 431.64 419.09 C 431.64 412.30 437.15 406.79 443.94 406.79 C 450.73 406.79 456.24 412.30 456.24 419.09 Z" fill="#e0f400" fill-rule="nonzero" node-id="134" stroke="#231815" stroke-linecap="butt" stroke-width="0.66" target-height="24.600006" target-width="24.599976" target-x="431.64" target-y="406.79"></path><path d="M 413.37 431.40 C 413.37 438.19 407.86 443.70 401.07 443.70 C 394.28 443.70 388.77 438.19 388.77 431.40 C 388.77 424.61 394.28 419.10 401.07 419.10 C 407.86 419.10 413.37 424.61 413.37 431.40 Z" fill="#ff7900" fill-rule="nonzero" node-id="136" stroke="#231815" stroke-linecap="butt" stroke-width="0.59" target-height="24.600006" target-width="24.600006" target-x="388.77" target-y="419.1"></path><path d="M 316.20 439.41 C 316.20 446.20 310.69 451.71 303.90 451.71 C 297.11 451.71 291.60 446.20 291.60 439.41 C 291.60 432.62 297.11 427.11 303.90 427.11 C 310.69 427.11 316.20 432.62 316.20 439.41 Z" fill="#e0f400" fill-rule="nonzero" node-id="138" stroke="#231815" stroke-linecap="butt" stroke-width="0.66" target-height="24.600006" target-width="24.600006" target-x="291.6" target-y="427.11"></path><path d="M 366.29 439.41 C 366.29 446.20 360.78 451.71 353.99 451.71 C 347.20 451.71 341.69 446.20 341.69 439.41 C 341.69 432.62 347.20 427.11 353.99 427.11 C 360.78 427.11 366.29 432.62 366.29 439.41 Z" fill="#ffee1c" fill-rule="nonzero" node-id="140" stroke="#231815" stroke-linecap="butt" stroke-width="0.75" target-height="24.600006" target-width="24.600006" target-x="341.69" target-y="427.11"></path><path d="M 178.90 221.89 L 157.47 205.08 C 156.43 204.26 155.91 202.95 156.10 201.65 C 156.28 200.34 157.15 199.23 158.38 198.74 L 183.65 188.59 C 184.87 188.12 186.25 188.33 187.28 189.14 C 188.30 189.95 188.83 191.24 188.65 192.54 L 184.80 219.54 C 184.60 220.83 183.73 221.91 182.52 222.40 C 181.31 222.88 179.93 222.69 178.90 221.89 Z" fill="#ff3342" fill-rule="nonzero" node-id="142" stroke="none" target-height="34.76123" target-width="32.917206" target-x="155.90924" target-y="188.11816"></path><path d="M 146.20 191.64 L 133.58 167.50 C 132.97 166.33 133.03 164.92 133.73 163.81 C 134.44 162.69 135.69 162.04 137.01 162.10 L 164.22 163.23 C 165.55 163.27 166.75 164.02 167.37 165.19 C 167.99 166.37 167.93 167.78 167.22 168.90 L 152.63 191.90 C 151.93 193.03 150.67 193.70 149.34 193.64 C 148.01 193.59 146.81 192.82 146.20 191.64 Z" fill="#e0f400" fill-rule="nonzero" node-id="144" stroke="#231815" stroke-linecap="butt" stroke-width="0.45" target-height="31.653534" target-width="35.022568" target-x="132.96681" target-y="162.04202"></path><path d="M 136.33 144.00 L 152.33 122.00 C 153.10 120.93 154.39 120.35 155.70 120.49 C 157.01 120.62 158.15 121.45 158.69 122.65 L 169.81 147.52 C 170.35 148.72 170.21 150.12 169.43 151.19 C 168.66 152.26 167.37 152.84 166.06 152.70 L 138.96 149.90 C 137.63 149.78 136.46 148.95 135.91 147.72 C 135.37 146.50 135.53 145.07 136.33 144.00 Z" fill="#4dabff" fill-rule="nonzero" node-id="146" stroke="none" target-height="32.48314" target-width="34.98146" target-x="135.36852" target-y="120.35385"></path><path d="M 168.20 113.07 L 191.12 98.36 C 192.23 97.65 193.64 97.58 194.81 98.19 C 195.99 98.80 196.75 99.98 196.81 101.30 L 198.08 128.51 C 198.14 129.83 197.50 131.08 196.38 131.80 C 195.27 132.51 193.86 132.57 192.69 131.96 L 168.50 119.46 C 167.33 118.86 166.56 117.67 166.50 116.35 C 166.44 115.03 167.09 113.78 168.20 113.07 Z" fill="#e0f400" fill-rule="nonzero" node-id="148" stroke="#231815" stroke-linecap="butt" stroke-width="0.45" target-height="34.98696" target-width="31.703323" target-x="166.44011" target-y="97.58329"></path><path d="M 208.53 91.44 L 234.63 83.67 C 235.90 83.30 237.26 83.62 238.22 84.53 C 239.18 85.44 239.58 86.79 239.28 88.07 L 233.00 114.57 C 232.69 115.85 231.72 116.87 230.45 117.25 C 229.19 117.63 227.82 117.30 226.86 116.39 L 207.00 97.67 C 206.04 96.76 205.65 95.40 205.96 94.11 C 206.28 92.83 207.26 91.81 208.53 91.44 Z" fill="#ffee1c" fill-rule="nonzero" node-id="150" stroke="#231815" stroke-linecap="butt" stroke-width="0.56" target-height="34.329407" target-width="33.936752" target-x="205.64705" target-y="83.29577"></path><path d="M 253.45 79.42 L 280.29 74.81 C 281.59 74.58 282.91 75.07 283.76 76.09 C 284.60 77.10 284.84 78.49 284.38 79.73 L 275.00 105.29 C 274.54 106.53 273.46 107.43 272.16 107.65 C 270.86 107.87 269.53 107.38 268.69 106.37 L 251.23 85.43 C 250.39 84.41 250.15 83.02 250.61 81.78 C 251.06 80.55 252.15 79.64 253.45 79.42 Z" fill="#e0f400" fill-rule="nonzero" node-id="152" stroke="#231815" stroke-linecap="butt" stroke-width="0.45" target-height="33.286003" target-width="34.691544" target-x="250.14815" target-y="74.58426"></path><path d="M 222.16 240.45 L 196.92 230.21 C 195.69 229.72 194.83 228.60 194.64 227.29 C 194.46 225.99 194.99 224.68 196.04 223.87 L 217.52 207.13 C 218.56 206.32 219.96 206.12 221.19 206.62 C 222.41 207.12 223.28 208.23 223.46 209.54 L 227.21 236.54 C 227.38 237.84 226.85 239.14 225.81 239.94 C 224.77 240.75 223.38 240.94 222.16 240.45 Z" fill="#e0f400" fill-rule="nonzero" node-id="154" stroke="#231815" stroke-linecap="butt" stroke-width="0.45" target-height="34.8183" target-width="32.91693" target-x="194.46262" target-y="206.12216"></path><path d="M 475.09 221.20 L 496.52 204.39 C 497.56 203.57 498.08 202.26 497.89 200.96 C 497.71 199.65 496.84 198.54 495.61 198.05 L 470.34 187.90 C 469.12 187.43 467.74 187.64 466.71 188.45 C 465.69 189.26 465.16 190.55 465.34 191.85 L 469.19 218.85 C 469.39 220.14 470.26 221.22 471.47 221.71 C 472.68 222.19 474.06 222.00 475.09 221.20 Z" fill="#ff3342" fill-rule="nonzero" node-id="156" stroke="none" target-height="34.76123" target-width="32.917236" target-x="465.16354" target-y="187.42816"></path><path d="M 485.79 112.38 L 462.87 97.67 C 461.76 96.96 460.35 96.89 459.18 97.50 C 458.00 98.11 457.24 99.29 457.18 100.61 L 455.91 127.82 C 455.85 129.14 456.49 130.39 457.61 131.11 C 458.72 131.82 460.13 131.88 461.30 131.27 L 485.50 118.77 C 486.67 118.16 487.43 116.98 487.49 115.66 C 487.55 114.34 486.90 113.09 485.79 112.38 Z" fill="#e0f400" fill-rule="nonzero" node-id="158" stroke="#231815" stroke-linecap="butt" stroke-width="0.45" target-height="34.986954" target-width="31.705994" target-x="455.84656" target-y="96.893295"></path><path d="M 445.46 90.75 L 419.36 83.00 C 418.09 82.63 416.73 82.95 415.77 83.86 C 414.81 84.77 414.41 86.12 414.71 87.40 L 421.03 113.90 C 421.34 115.18 422.31 116.20 423.58 116.58 C 424.84 116.96 426.21 116.63 427.17 115.72 L 447.00 97.00 C 447.97 96.08 448.37 94.72 448.05 93.43 C 447.73 92.13 446.74 91.11 445.46 90.75 Z" fill="#ffee1c" fill-rule="nonzero" node-id="160" stroke="#231815" stroke-linecap="butt" stroke-width="0.56" target-height="34.329407" target-width="33.96283" target-x="414.4062" target-y="82.62577"></path><path d="M 400.54 78.73 L 373.70 74.12 C 372.41 73.90 371.10 74.38 370.26 75.39 C 369.42 76.39 369.17 77.77 369.61 79.00 L 379.00 104.60 C 379.46 105.84 380.54 106.74 381.84 106.96 C 383.14 107.18 384.47 106.69 385.31 105.68 L 402.73 84.74 C 403.57 83.73 403.81 82.34 403.36 81.11 C 402.91 79.87 401.84 78.96 400.54 78.73 Z" fill="#e0f400" fill-rule="nonzero" node-id="162" stroke="#231815" stroke-linecap="butt" stroke-width="0.45" target-height="33.278618" target-width="34.645294" target-x="369.16928" target-y="73.90164"></path><path d="M 271.19 252.41 L 244.55 246.75 C 243.26 246.48 242.20 245.54 241.79 244.28 C 241.38 243.03 241.67 241.65 242.55 240.66 L 260.78 220.42 C 261.66 219.44 263.00 219.00 264.29 219.27 C 265.59 219.55 266.63 220.49 267.04 221.75 L 275.46 247.65 C 275.86 248.90 275.57 250.28 274.69 251.26 C 273.81 252.24 272.48 252.68 271.19 252.41 Z" fill="#ffee1c" fill-rule="nonzero" node-id="164" stroke="#231815" stroke-linecap="butt" stroke-width="0.56" target-height="33.678055" target-width="34.485947" target-x="241.37859" target-y="218.99849"></path><path d="M 316.38 256.00 L 289.21 254.18 C 287.89 254.10 286.72 253.31 286.13 252.12 C 285.55 250.93 285.65 249.53 286.39 248.43 L 301.55 225.81 C 302.29 224.71 303.55 224.09 304.87 224.18 C 306.19 224.27 307.36 225.06 307.94 226.24 L 319.94 250.68 C 320.52 251.86 320.43 253.27 319.69 254.37 C 318.96 255.46 317.70 256.08 316.38 256.00 Z" fill="#e0f400" fill-rule="nonzero" node-id="166" stroke="#231815" stroke-linecap="butt" stroke-width="0.45" target-height="31.990509" target-width="34.969543" target-x="285.55078" target-y="224.09409"></path><path d="M 362.60 254.27 L 335.41 255.84 C 334.09 255.92 332.83 255.28 332.11 254.18 C 331.38 253.08 331.30 251.67 331.89 250.49 L 344.12 226.16 C 344.71 224.98 345.89 224.21 347.21 224.13 C 348.53 224.06 349.78 224.69 350.51 225.79 L 365.51 248.55 C 366.24 249.66 366.31 251.07 365.71 252.25 C 365.11 253.43 363.92 254.20 362.60 254.27 Z" fill="#e0f400" fill-rule="nonzero" node-id="168" stroke="#231815" stroke-linecap="butt" stroke-width="0.45" target-height="31.85675" target-width="35.012695" target-x="331.29907" target-y="224.05864"></path><path d="M 409.75 247.56 L 383.00 252.71 C 381.70 252.96 380.37 252.50 379.51 251.51 C 378.64 250.51 378.38 249.13 378.81 247.88 L 387.72 222.14 C 388.15 220.89 389.21 219.97 390.51 219.72 C 391.81 219.47 393.14 219.93 394.00 220.93 L 411.84 241.51 C 412.70 242.51 412.97 243.89 412.54 245.14 C 412.11 246.38 411.04 247.31 409.75 247.56 Z" fill="#ffee1c" fill-rule="nonzero" node-id="170" stroke="#231815" stroke-linecap="butt" stroke-width="0.56" target-height="33.491425" target-width="34.589752" target-x="378.37823" target-y="219.47"></path><path d="M 454.76 230.44 L 429.49 240.60 C 428.27 241.08 426.89 240.87 425.86 240.06 C 424.83 239.25 424.31 237.95 424.49 236.65 L 428.32 209.65 C 428.50 208.34 429.37 207.23 430.60 206.74 C 431.83 206.25 433.22 206.45 434.26 207.27 L 455.69 224.07 C 456.74 224.89 457.27 226.21 457.08 227.53 C 456.89 228.84 456.00 229.96 454.76 230.44 Z" fill="#e0f400" fill-rule="nonzero" node-id="172" stroke="#231815" stroke-linecap="butt" stroke-width="0.45" target-height="34.82866" target-width="32.96588" target-x="424.30722" target-y="206.24973"></path><path d="M 170.20 441.68 L 168.84 451.14 C 168.76 451.71 168.97 452.28 169.39 452.67 L 176.39 459.14 C 176.87 459.59 177.06 460.28 176.87 460.91 C 176.69 461.55 176.16 462.02 175.51 462.14 L 166.09 463.77 C 165.52 463.87 165.04 464.25 164.80 464.77 L 160.80 473.45 C 160.52 474.05 159.92 474.44 159.26 474.46 C 158.60 474.47 157.98 474.12 157.67 473.53 L 153.21 465.09 C 152.94 464.58 152.44 464.23 151.87 464.17 L 142.38 463.06 C 141.71 462.98 141.15 462.52 140.93 461.88 C 140.72 461.23 140.89 460.53 141.38 460.06 L 148.03 453.21 C 148.43 452.80 148.61 452.21 148.49 451.65 L 146.62 442.28 C 146.48 441.63 146.73 440.96 147.26 440.55 C 147.79 440.14 148.50 440.07 149.10 440.37 L 157.68 444.58 C 158.19 444.84 158.79 444.84 159.30 444.58 L 167.63 439.90 C 168.21 439.58 168.92 439.62 169.46 440.00 C 170.01 440.37 170.29 441.03 170.20 441.68 Z" fill="#ffee1c" fill-rule="nonzero" node-id="174" stroke="none" target-height="34.890717" target-width="36.34291" target-x="140.71756" target-y="439.5838"></path><path d="M 179.00 469.39 L 183.57 473.06 C 183.85 473.29 184.22 473.37 184.57 473.26 L 190.18 471.58 C 190.57 471.46 191.00 471.58 191.28 471.88 C 191.55 472.18 191.64 472.61 191.49 472.99 L 189.40 478.46 C 189.27 478.79 189.32 479.17 189.52 479.46 L 192.85 484.28 C 193.08 484.61 193.11 485.05 192.91 485.41 C 192.71 485.77 192.33 485.98 191.92 485.96 L 186.07 485.67 C 185.72 485.66 185.38 485.81 185.16 486.09 L 181.61 490.75 C 181.36 491.07 180.95 491.22 180.55 491.14 C 180.15 491.07 179.83 490.77 179.72 490.38 L 178.19 484.72 C 178.10 484.38 177.84 484.11 177.51 483.99 L 171.92 482.00 C 171.53 481.87 171.26 481.52 171.21 481.12 C 171.16 480.71 171.35 480.31 171.69 480.09 L 176.60 476.89 C 176.89 476.69 177.07 476.37 177.08 476.02 L 177.22 470.16 C 177.23 469.74 177.48 469.37 177.86 469.21 C 178.25 469.04 178.69 469.11 179.00 469.39 Z" fill="#4dabff" fill-rule="nonzero" node-id="176" stroke="none" target-height="22.180084" target-width="21.94635" target-x="171.15906" target-y="469.043"></path><path d="M 213.48 466.52 L 221.68 473.12 C 222.17 473.52 222.82 473.65 223.43 473.47 L 233.52 470.47 C 234.22 470.26 234.98 470.46 235.48 471.00 C 235.98 471.53 236.13 472.31 235.87 472.99 L 232.13 482.83 C 231.90 483.42 231.98 484.09 232.34 484.61 L 238.34 493.27 C 238.74 493.87 238.77 494.65 238.42 495.28 C 238.06 495.92 237.38 496.30 236.66 496.27 L 226.15 495.75 C 225.52 495.71 224.91 496.00 224.53 496.50 L 218.14 504.86 C 217.69 505.44 216.96 505.72 216.24 505.58 C 215.52 505.44 214.95 504.90 214.75 504.20 L 212.00 494.05 C 211.82 493.45 211.37 492.96 210.78 492.74 L 200.85 489.25 C 200.16 489.01 199.67 488.39 199.58 487.67 C 199.49 486.94 199.82 486.22 200.43 485.82 L 209.24 480.06 C 209.77 479.72 210.10 479.13 210.12 478.50 L 210.37 467.97 C 210.39 467.24 210.82 466.59 211.48 466.29 C 212.14 465.98 212.91 466.07 213.48 466.52 Z" fill="#ffee1c" fill-rule="nonzero" node-id="178" stroke="none" target-height="39.738953" target-width="39.28418" target-x="199.4889" target-y="465.9792"></path><path d="M 257.81 477.67 L 259.25 483.35 C 259.32 483.70 259.57 483.98 259.91 484.09 L 265.41 486.09 C 265.79 486.23 266.06 486.58 266.10 486.98 C 266.15 487.39 265.96 487.78 265.61 488.00 L 260.61 491.13 C 260.31 491.32 260.12 491.64 260.11 491.99 L 259.87 497.85 C 259.85 498.26 259.61 498.62 259.24 498.78 C 258.87 498.95 258.43 498.89 258.12 498.63 L 253.61 494.88 C 253.34 494.63 252.96 494.55 252.61 494.67 L 247.00 496.28 C 246.61 496.39 246.18 496.27 245.91 495.97 C 245.63 495.66 245.56 495.23 245.71 494.85 L 247.89 489.41 C 248.02 489.08 247.98 488.70 247.78 488.41 L 244.54 483.54 C 244.30 483.19 244.29 482.74 244.50 482.38 C 244.72 482.02 245.12 481.82 245.54 481.87 L 251.38 482.26 C 251.74 482.28 252.08 482.13 252.30 481.85 L 255.93 477.26 C 256.18 476.94 256.60 476.79 257.00 476.88 C 257.40 476.96 257.71 477.27 257.81 477.67 Z" fill="#ff7900" fill-rule="nonzero" node-id="180" stroke="none" target-height="22.15741" target-width="21.858871" target-x="244.28825" target-y="476.78986"></path><path d="M 361.61 486.36 L 362.93 494.89 C 363.01 495.40 363.33 495.84 363.80 496.07 L 371.57 499.81 C 372.11 500.08 372.45 500.63 372.45 501.23 C 372.45 501.82 372.11 502.37 371.57 502.64 L 363.88 506.53 C 363.41 506.76 363.09 507.20 363.02 507.72 L 361.86 516.27 C 361.78 516.86 361.37 517.36 360.80 517.55 C 360.23 517.74 359.60 517.59 359.18 517.17 L 353.10 511.05 C 352.74 510.68 352.21 510.51 351.70 510.60 L 343.22 512.14 C 342.63 512.25 342.03 512.01 341.67 511.53 C 341.31 511.05 341.26 510.40 341.53 509.87 L 345.48 502.20 C 345.72 501.74 345.72 501.19 345.48 500.73 L 341.40 493.13 C 341.11 492.60 341.15 491.96 341.50 491.47 C 341.85 490.98 342.45 490.73 343.04 490.83 L 351.56 492.21 C 352.07 492.29 352.59 492.12 352.95 491.74 L 358.95 485.51 C 359.37 485.10 359.98 484.96 360.54 485.13 C 361.09 485.31 361.51 485.78 361.61 486.36 Z" fill="#4dabff" fill-rule="nonzero" node-id="182" stroke="none" target-height="32.78299" target-width="31.335052" target-x="341.11197" target-y="484.95627"></path><path d="M 299.36 482.83 L 300.82 492.28 C 300.92 492.85 301.29 493.34 301.82 493.58 L 310.43 497.74 C 311.02 498.04 311.40 498.64 311.40 499.31 C 311.40 499.97 311.02 500.57 310.43 500.87 L 301.89 505.18 C 301.38 505.44 301.02 505.94 300.95 506.51 L 299.66 516.00 C 299.58 516.67 299.12 517.23 298.48 517.45 C 297.83 517.66 297.13 517.49 296.66 517.00 L 290.00 510.19 C 289.59 509.78 289.02 509.60 288.45 509.70 L 279.00 511.40 C 278.34 511.52 277.68 511.26 277.28 510.72 C 276.89 510.19 276.83 509.47 277.13 508.88 L 281.50 500.38 C 281.77 499.87 281.77 499.26 281.50 498.75 L 277.00 490.33 C 276.69 489.74 276.74 489.03 277.12 488.49 C 277.51 487.95 278.16 487.68 278.82 487.78 L 288.26 489.31 C 288.83 489.40 289.41 489.21 289.80 488.79 L 296.42 481.88 C 296.88 481.43 297.56 481.27 298.18 481.47 C 298.79 481.67 299.25 482.19 299.36 482.83 Z" fill="#e0f400" fill-rule="nonzero" node-id="184" stroke="none" target-height="36.38919" target-width="34.708588" target-x="276.6883" target-y="481.27322"></path><path d="M 472.61 455.88 L 464.79 462.17 C 464.32 462.55 463.70 462.68 463.12 462.50 L 453.49 459.63 C 452.82 459.43 452.10 459.63 451.63 460.14 C 451.15 460.65 451.01 461.39 451.25 462.04 L 454.83 471.43 C 455.04 471.99 454.96 472.62 454.62 473.12 L 448.91 481.39 C 448.52 481.97 448.49 482.71 448.83 483.32 C 449.17 483.93 449.82 484.29 450.52 484.26 L 460.52 483.77 C 461.12 483.74 461.71 484.01 462.07 484.49 L 468.17 492.49 C 468.60 493.04 469.30 493.30 469.98 493.17 C 470.67 493.03 471.22 492.52 471.40 491.85 L 474.03 482.16 C 474.19 481.58 474.62 481.11 475.19 480.91 L 484.66 477.58 C 485.32 477.35 485.79 476.76 485.87 476.07 C 485.96 475.38 485.64 474.69 485.06 474.31 L 476.65 468.82 C 476.15 468.48 475.84 467.92 475.82 467.32 L 475.58 457.32 C 475.58 456.62 475.18 455.97 474.55 455.66 C 473.91 455.36 473.16 455.44 472.61 455.88 Z" fill="#4dabff" fill-rule="nonzero" node-id="186" stroke="none" target-height="37.94696" target-width="37.469513" target-x="448.48773" target-y="455.3576"></path><path d="M 402.00 476.17 L 400.56 481.85 C 400.47 482.19 400.22 482.47 399.89 482.60 L 394.40 484.60 C 394.02 484.74 393.75 485.09 393.71 485.49 C 393.66 485.90 393.85 486.29 394.20 486.51 L 399.15 489.64 C 399.46 489.82 399.65 490.14 399.65 490.50 L 399.89 496.35 C 399.90 496.76 400.15 497.12 400.53 497.29 C 400.90 497.46 401.34 497.39 401.65 497.13 L 406.15 493.38 C 406.43 493.15 406.80 493.07 407.15 493.18 L 412.79 494.76 C 413.18 494.87 413.61 494.75 413.88 494.45 C 414.16 494.14 414.23 493.71 414.08 493.33 L 411.90 487.89 C 411.77 487.56 411.81 487.18 412.01 486.89 L 415.26 482.01 C 415.49 481.67 415.50 481.22 415.29 480.86 C 415.07 480.51 414.67 480.31 414.26 480.35 L 408.41 480.74 C 408.06 480.76 407.72 480.61 407.50 480.33 L 403.87 475.73 C 403.61 475.41 403.20 475.27 402.80 475.37 C 402.40 475.46 402.09 475.77 402.00 476.17 Z" fill="#e0f400" fill-rule="nonzero" node-id="188" stroke="none" target-height="22.183105" target-width="21.839111" target-x="393.66287" target-y="475.2739"></path><path d="M 233.29 123.57 C 235.07 124.71 242.57 129.99 238.93 135.51 C 238.93 135.51 232.10 139.30 229.71 135.19 C 226.95 130.43 231.51 130.02 232.88 127.78 C 233.61 126.54 233.70 125.03 233.11 123.72 C 233.08 123.67 233.10 123.61 233.14 123.57 C 233.18 123.54 233.25 123.54 233.29 123.57 Z" fill="#ff3342" fill-rule="nonzero" node-id="190" stroke="none" target-height="15.764404" target-width="15.62001" target-x="226.95" target-y="123.5356"></path><path d="M 238.61 175.78 L 230.15 175.78 C 229.35 175.78 228.70 175.13 228.70 174.33 L 228.70 138.80 C 228.70 135.66 231.41 134.31 234.55 134.31 L 234.55 134.31 C 237.69 134.31 240.06 135.66 240.06 138.80 L 240.06 174.33 C 240.06 175.13 239.41 175.78 238.61 175.78 Z" fill="#4dabff" fill-rule="nonzero" node-id="192" stroke="none" target-height="41.47" target-width="11.360001" target-x="228.7" target-y="134.31"></path><path d="M 250.34 144.93 C 252.12 146.08 259.62 151.35 255.99 156.87 C 255.99 156.87 249.16 160.67 246.77 156.55 C 244.01 151.80 248.57 151.38 249.93 149.14 C 250.65 147.92 250.73 146.43 250.16 145.14 C 250.10 145.09 250.10 145.00 250.15 144.94 C 250.19 144.89 250.28 144.88 250.34 144.93 Z" fill="#ff3342" fill-rule="nonzero" node-id="194" stroke="none" target-height="15.789703" target-width="15.610001" target-x="244.01" target-y="144.8803"></path><path d="M 255.66 197.15 L 247.20 197.15 C 246.40 197.15 245.75 196.50 245.75 195.70 L 245.75 160.16 C 245.75 157.02 248.47 155.67 251.61 155.67 L 251.61 155.67 C 254.74 155.67 257.11 157.02 257.11 160.16 L 257.11 195.70 C 257.11 196.50 256.46 197.15 255.66 197.15 Z" fill="#4dabff" fill-rule="nonzero" node-id="196" stroke="none" target-height="41.479996" target-width="11.359985" target-x="245.75" target-y="155.67"></path><path d="M 423.00 125.07 C 424.78 126.22 432.28 131.49 428.64 137.01 C 428.64 137.01 421.81 140.81 419.42 136.69 C 416.66 131.94 421.22 131.52 422.59 129.28 C 423.32 128.04 423.40 126.53 422.82 125.22 C 422.79 125.17 422.81 125.11 422.85 125.07 C 422.89 125.04 422.96 125.04 423.00 125.07 Z" fill="#ff3342" fill-rule="nonzero" node-id="198" stroke="none" target-height="15.774399" target-width="15.619995" target-x="416.66" target-y="125.0356"></path><path d="M 428.32 177.28 L 419.86 177.28 C 419.47 177.28 419.10 177.13 418.83 176.86 C 418.56 176.59 418.41 176.22 418.41 175.83 L 418.41 140.30 C 418.41 137.16 421.12 135.81 424.26 135.81 L 424.26 135.81 C 427.40 135.81 429.77 137.16 429.77 140.30 L 429.77 175.83 C 429.77 176.22 429.62 176.59 429.35 176.86 C 429.08 177.13 428.71 177.28 428.32 177.28 Z" fill="#4dabff" fill-rule="nonzero" node-id="200" stroke="none" target-height="41.472687" target-width="11.365356" target-x="418.40732" target-y="135.81"></path><path d="M 406.11 144.93 C 407.89 146.08 415.39 151.35 411.75 156.87 C 411.75 156.87 404.92 160.67 402.53 156.55 C 399.77 151.80 404.33 151.38 405.70 149.14 C 406.41 147.92 406.50 146.43 405.93 145.14 C 405.87 145.09 405.87 145.00 405.92 144.94 C 405.96 144.89 406.05 144.88 406.11 144.93 Z" fill="#ff3342" fill-rule="nonzero" node-id="202" stroke="none" target-height="15.789703" target-width="15.620026" target-x="399.77" target-y="144.8803"></path><path d="M 411.43 197.15 L 403.00 197.15 C 402.20 197.15 401.55 196.50 401.55 195.70 L 401.55 160.16 C 401.55 157.02 404.26 155.67 407.40 155.67 L 407.40 155.67 C 410.54 155.67 412.91 157.02 412.91 160.16 L 412.91 195.70 C 412.91 196.09 412.75 196.46 412.47 196.74 C 412.20 197.01 411.82 197.16 411.43 197.15 Z" fill="#4dabff" fill-rule="nonzero" node-id="204" stroke="none" target-height="41.488068" target-width="11.360107" target-x="401.55" target-y="155.67"></path><path d="M 340.27 38.04 C 340.27 45.90 333.90 52.27 326.04 52.27 C 318.18 52.27 311.81 45.90 311.81 38.04 C 311.81 30.18 318.18 23.81 326.04 23.81 C 333.90 23.81 340.27 30.18 340.27 38.04 Z" fill="#ff3342" fill-rule="nonzero" node-id="206" stroke="none" target-height="28.460001" target-width="28.459991" target-x="311.81" target-y="23.81"></path><path d="M 311.70 38.00 L 340.17 38.00 C 340.31 43.18 337.62 48.02 333.16 50.65 C 328.70 53.27 323.17 53.27 318.71 50.65 C 314.25 48.02 311.56 43.18 311.70 38.00 Z" fill="#4dabff" fill-rule="nonzero" node-id="208" stroke="none" target-height="15.274384" target-width="28.744385" target-x="311.5628" target-y="38"></path><path d="M 507.58 192.42 L 519.76 169.13 C 520.35 168.00 520.30 166.64 519.61 165.57 C 518.93 164.49 517.72 163.86 516.45 163.92 L 490.20 165.00 C 488.93 165.05 487.78 165.78 487.19 166.91 C 486.60 168.04 486.65 169.39 487.33 170.47 L 501.41 192.66 C 502.09 193.74 503.29 194.38 504.56 194.33 C 505.84 194.28 506.99 193.55 507.58 192.42 Z" fill="#e0f400" fill-rule="nonzero" node-id="210" stroke="#231815" stroke-linecap="butt" stroke-width="0.44" target-height="30.511932" target-width="33.754242" target-x="486.59756" target-y="163.86371"></path><path d="M 517.10 146.43 L 501.69 125.15 C 500.94 124.12 499.70 123.56 498.43 123.69 C 497.17 123.83 496.07 124.63 495.55 125.79 L 484.82 149.79 C 484.30 150.95 484.45 152.31 485.19 153.34 C 485.94 154.37 487.18 154.92 488.45 154.79 L 514.58 152.08 C 515.85 151.95 516.95 151.15 517.47 149.98 C 517.99 148.82 517.85 147.46 517.10 146.43 Z" fill="#4dabff" fill-rule="nonzero" node-id="212" stroke="none" target-height="31.359756" target-width="33.689606" target-x="484.303" target-y="123.56128"></path></svg>