<svg id="图层_1" data-name="图层 1" xmlns="http://www.w3.org/2000/svg" width="106.8mm" height="85.9mm" viewBox="0 0 302.7 243.5"><defs><style>.cls-1{fill:#fff;}.cls-1,.cls-2,.cls-3,.cls-4,.cls-5{stroke:#3f185b;stroke-miterlimit:10;}.cls-1,.cls-2,.cls-3{stroke-width:1.74px;}.cls-2,.cls-5{fill:#ec829f;}.cls-3,.cls-4{fill:#7496cb;}.cls-4,.cls-5{stroke-width:1.61px;}</style></defs><title>火箭</title><polygon class="cls-1" points="107.7 163.1 139.9 188.3 149.5 167.8 125.3 148.9 107.7 163.1"/><polygon class="cls-1" points="114.3 168.3 133.3 183.2 144.5 164 130.2 152.8 114.3 168.3"/><polygon class="cls-1" points="119.8 172.6 127.8 178.9 140.4 160.7 134.4 156 119.8 172.6"/><path class="cls-2" d="M130.2,115.1A32.3,32.3,0,1,0,181.1,155c11-14.1,67.6-109.9,53.5-120.9S141.2,101,130.2,115.1Z"/><path class="cls-3" d="M160,186.8a9.1,9.1,0,0,0,7.6,10.4,9.2,9.2,0,0,0,10.5-7.7c.7-5-3.5-31.4-8.5-32.2S160.7,181.8,160,186.8Z"/><path class="cls-3" d="M104.1,142.9a9.1,9.1,0,1,1-5.5-17.4c4.8-1.5,31.6-1.5,33.1,3.3S108.9,141.4,104.1,142.9Z"/><rect class="cls-4" x="135.8" y="139.1" width="7.9" height="32.48" rx="3.5" transform="translate(154.2 363.7) rotate(-142)"/><path class="cls-5" d="M116,177.3a1.6,1.6,0,0,1-1.2-.1,1.7,1.7,0,0,1-1,.6h-.1l-.3.2v.2a.9.9,0,0,1-.7,1.1,1.1,1.1,0,0,1-1.2-.7,1,1,0,0,1,.5-1v-.5h-.1a2.5,2.5,0,0,1-3-1.8,2.5,2.5,0,0,1,1.9-3,2.6,2.6,0,0,1,3,1.9v.3h.4a2,2,0,0,1,1.1-.6,1.7,1.7,0,0,1,.7,3.3Z"/><path class="cls-5" d="M101.3,171.1a2.5,2.5,0,0,1-1.9-.2,2.3,2.3,0,0,1-1.6,1h-.1l-.4.3a.4.4,0,0,1,.1.3,1.5,1.5,0,1,1-2.9.6,1.2,1.2,0,0,1,.7-1.5.4.4,0,0,1-.1-.3.9.9,0,0,1-.1-.5h-.2a3.8,3.8,0,0,1-4.6-2.9,4,4,0,0,1,3-4.7,3.9,3.9,0,0,1,4.6,3c0,.1.1.3.1.4l.7.3a2.3,2.3,0,0,1,1.6-1,2.7,2.7,0,1,1,1.1,5.2Z"/><path class="cls-5" d="M133.4,192.8a2.5,2.5,0,0,1,1.3,1.4,2.5,2.5,0,0,1,1.9.2h.6c0-.1.1-.2.1-.3a1.4,1.4,0,0,1,2-.7,1.4,1.4,0,0,1,.7,2,1.4,1.4,0,0,1-1.5.8v.3l-.3.4h.2a3.9,3.9,0,0,1,1.8,5.2,3.9,3.9,0,1,1-7-3.4c.1-.2.1-.3.2-.4a1.6,1.6,0,0,1-.4-.7,2.5,2.5,0,0,1-1.9-.1,2.7,2.7,0,0,1,2.4-4.9Z"/><path class="cls-5" d="M146.9,202.2a2.5,2.5,0,0,1,1.3,1.4,2.5,2.5,0,0,1,1.9.1h.6a.4.4,0,0,0,.1-.3,1.6,1.6,0,0,1,2-.7,1.4,1.4,0,0,1,.7,2,1.6,1.6,0,0,1-1.5.9c0,.1-.1.1-.1.2l-.3.4h.2a4,4,0,0,1,1.8,5.2,3.8,3.8,0,0,1-5.2,1.8,4,4,0,0,1-1.8-5.2l.2-.4-.4-.6a2.5,2.5,0,0,1-1.9-.2,2.7,2.7,0,1,1,2.4-4.8Z"/><path class="cls-2" d="M123.3,179.7c.5-.4,4.9,38.3,13.8,37s4.1,19.1-2.4,10.2-6.5-.7-11-7.2-.8-12-6.2-9,2.4-3.4-9.5-6.6-10.4-7.8-16.8-10.3-17.9-12.2-20.4-14.9-5.1-17.1,4.9-11.7S108.1,191.8,123.3,179.7Z"/></svg>