<?xml version="1.0" encoding="utf-8"?>
<!-- Generator: Adobe Illustrator 23.0.1, SVG Export Plug-In . SVG Version: 6.00 Build 0)  -->
<svg version="1.1" id="图层_1" xmlns="http://www.w3.org/2000/svg" xmlns:xlink="http://www.w3.org/1999/xlink" x="0px" y="0px"
	 viewBox="0 0 300 300" style="enable-background:new 0 0 300 300;" xml:space="preserve">
<style type="text/css">
	.st0{fill:#472628;}
</style>
<g>
	<path class="st0" d="M78.56,130.58c2.49-0.43,5.25-0.45,7.49-2.02c0.82-0.56,1.61-1.23,2.33-1.96c0.08,0.52,0.18,1.03,0.35,1.53
		c0.74,2.28,1.68,4.44,3.45,6.77l0.62-0.01c1.65-2.5,2-5.14,2.07-7.64c0.1-2.54-1.14-4.83-1.87-7.17c-0.72-2.35-1.54-4.66-2.43-6.95
		c-0.95-2.27-1.83-4.55-2.92-6.77l-0.6,0.16c0.34,4.89,0.65,9.75,1.09,14.52c0.03,0.3,0.02,0.6,0.03,0.91
		c-1.73,0.28-3.22,0.6-4.73,1.01c-2.14,0.52-4.01,1.97-6.19,2.86c-1.31,0.53-2.7,0.98-4.07,1.45c-0.39-1.65-0.77-3.3-1.21-4.94
		c-0.67-2.29-1.25-4.58-1.99-6.86l-0.62,0.07c-0.24,2.39-0.31,4.75-0.47,7.13c-0.09,2.04-0.12,4.07-0.14,6.1
		c-1.71,0.53-3.44,1.01-5.19,1.49l0.03,0.62c1.69,0.24,3.38,0.31,5.07,0.35c-0.12,1.89-0.35,3.79,0.21,5.61
		c0.67,2.29,1.58,4.55,3.53,6.7l0.62-0.07c1.45-2.52,1.85-4.92,2.01-7.3c0.15-1.73-0.38-3.38-0.87-5.04
		C75.63,130.98,77.1,130.83,78.56,130.58z"/>
	<path class="st0" d="M103.92,130.34c-0.79,2.73-1.55,5.5-1.85,8.37l0.61,0.11c0.82-2.66,1.98-5.21,3.16-7.76
		c0.22-0.47,0.46-0.92,0.69-1.38c1.88,0.11,3.71-0.62,5.46-1.1c2.03-0.53,4-1.21,5.89-2.03c1.07-0.5,2.12-1.01,3.15-1.55
		c0.27,0.45,0.53,0.9,0.81,1.35l3.58,5.72l0.61-0.12c0.31-2.4,0-4.76-0.41-7.05c-0.44-2.29-1.05-4.52-1.83-6.66
		c-0.72-2.17-1.64-4.26-2.71-6.25c-1.07-2-2.33-3.88-3.58-5.81l-2.97-4.6l-1.87,4.72c-2.11,5.31-4.19,10.56-6.11,15.91
		c-0.14,0.38-0.26,0.78-0.39,1.16c-0.14,0.02-0.28,0.01-0.42,0.05c-1.85,0.42-3.64,0.92-5.88,2.29l-0.11,0.61
		c1.29,1.55,2.88,2.42,4.52,2.93C104.14,129.62,104.03,129.98,103.92,130.34z M114.81,113.65c0.18,0.41,0.35,0.82,0.54,1.22
		c0.94,1.99,1.96,3.93,3.09,5.81c0.5,0.89,1.05,1.76,1.58,2.64c-2.94,0.21-5.86,0.32-8.68,0.34c-0.59,0-1.17-0.07-1.75-0.15
		C111.28,120.21,113.03,116.92,114.81,113.65z"/>
	<path class="st0" d="M139.44,101.31c-0.36,3.43-0.61,6.85-0.92,10.27c-0.27,3.61-0.49,7.21-0.67,10.82
		c-1.68-0.04-3.37-0.09-5.1-0.12l-0.18,0.59c1.61,0.99,3.3,1.84,5.05,2.57c-0.26,2.77-0.57,5.54-0.16,8.29
		c0.5,3.68,1.24,7.35,3.03,11l0.62-0.01c1.63-3.72,2.21-7.43,2.54-11.12c0.22-2.12,0.01-4.23-0.27-6.34c2.6,0.59,5.31,0.84,8.1,0.76
		c3.43-0.17,7.13-0.99,10.31-3.53c1.59-1.21,2.89-3.03,3.65-5.02c0.67-2.02,0.77-4.19,0.3-6.04c-0.79-3.65-2.96-6.95-5.88-9.04
		c-2.88-2.09-6.1-3.22-9.28-3.92c-6.42-1.21-12.81-1.17-19.07-0.28l0.06,0.62C134.2,100.84,136.83,101.02,139.44,101.31z
		 M149.78,103.46c2.85,0.91,5.54,2.24,7.57,4.06c2.02,1.78,3.19,4.2,3.51,6.7c0.7,4.98-4.55,6.7-9.99,7.63
		c-2.58,0.44-5.29,0.57-8.08,0.6c-0.34-3.65-0.72-7.29-1.16-10.93c-0.46-3.37-0.85-6.75-1.36-10.12
		C143.53,101.81,146.74,102.45,149.78,103.46z"/>
	<path class="st0" d="M179.03,127.24c2.79,0.56,5.65,0.92,8.57,1c3.3,0.02,6.73-0.35,10.18-1.93c1.69-0.83,3.48-2.03,4.76-3.93
		c1.33-1.89,1.65-4.36,1.32-6.29c-0.29-1.97-1.09-3.56-1.82-5.19l-1.5-2.24c-0.54-0.71-1.21-1.29-1.82-1.93
		c-2.6-2.37-5.69-3.86-8.8-4.85c-6.31-1.77-12.71-1.95-18.95-1.18l0.05,0.62c2.63,0.09,5.27,0.34,7.87,0.74
		c-0.85,3.31-1.59,6.64-2.39,9.95c-0.82,3.63-1.59,7.26-2.31,10.9c0,0,0,0.01,0,0.01c-1.73,0.11-3.47,0.23-5.24,0.4l-0.12,0.61
		c1.54,0.72,3.11,1.34,4.7,1.88c-0.65,2.66-1.34,5.31-1.34,8.05c-0.05,3.73,0.15,7.48,1.39,11.37l0.61,0.08
		c2.16-3.46,3.28-7.05,4.15-10.67C178.96,132.21,179,129.73,179.03,127.24z M179.58,112.39c0.04-3.41,0.15-6.81,0.14-10.23
		c3.18,0.54,6.27,1.37,9.14,2.61c2.71,1.17,5.18,2.74,6.99,4.77c0.4,0.54,0.89,1.02,1.23,1.59l0.93,1.75
		c0.39,1.24,0.88,2.55,0.91,3.68c0.45,4.28-5.98,4.77-11.61,5.47c-2.66,0.29-5.39,0.45-8.17,0.6
		C179.33,119.23,179.48,115.82,179.58,112.39z"/>
	<path class="st0" d="M239.26,103.18c-1.82-0.7-3.32-0.71-4.76-0.69c-1.46,0.04-2.73,0.19-4.16,0.45c-3.14,0.63-5.83,2.29-7.94,4.19
		c-4.13,3.87-6.82,8.48-8.82,13.23c-0.45-1.11-0.63-2.44-0.55-3.78c0.34-4.78,2.27-9.56,4.47-13.98l-0.54-0.31
		c-2.56,4.35-4.87,8.92-5.65,14.14c-0.16,1.31-0.18,2.68,0.15,4.07c0.18,0.85,0.58,1.68,1.12,2.43c-1.52,4.07-2.7,8.21-3.54,12.42
		c-0.98,5.03-1.72,10.07-1.34,15.32l0.62-0.02c2.62-8.45,5.83-16.79,9.49-24.62c1.27,0.33,2.59,0.49,3.95,0.46
		c5.71-0.29,10.4-3.65,14.2-7.13l1.43-1.39c0.55-0.6,0.91-1.05,1.34-1.6c0.82-1.06,1.6-2.16,2.28-3.4c0.67-1.25,1.34-2.56,1.52-4.44
		c0.08-0.92-0.03-2.11-0.69-3.21C241.2,104.2,240.14,103.55,239.26,103.18z M237.1,110.92c-0.47,0.99-1.07,1.99-1.73,2.96
		c-0.31,0.46-0.71,1.01-0.99,1.35l-1.19,1.31c-3.25,3.45-7.2,6.45-11.65,7.03c-0.83,0.11-1.71,0.08-2.58-0.03
		c0.06-0.13,0.12-0.26,0.18-0.39c2.21-4.24,4.48-8.47,7.47-11.63c1.47-1.57,3.14-2.75,4.91-3.26c2.07-0.56,4.72-0.89,5.94-0.51
		c0.27,0.09,0.35,0.13,0.34,0.11c0.01-0.02,0.09,0.08,0.09,0.41C237.91,108.9,237.57,109.95,237.1,110.92z"/>
	<path class="st0" d="M279.5,157.68c-1.93-1.81-3.92-2.24-5.69-2.63c-1.81-0.32-3.43-0.51-5.48-0.44c-1.97,0.1-3.89,0.65-5.65,1.42
		c-3.53,1.6-6.27,4.2-8.44,6.96c-1.97,2.61-3.51,5.41-4.73,8.3c-1.11-2.31-1.12-5.3-0.56-8.07c0.74-3.8,2.25-7.52,4.12-10.97
		l-0.52-0.33c-2.19,3.38-4.02,6.99-5.12,10.95c-0.54,1.98-0.86,4.06-0.7,6.22c0.12,1.71,0.71,3.47,1.72,4.98
		c-0.87,2.5-1.54,5.05-2.04,7.61c-1.2,6.52-1.44,13.41,0.64,19.72l0.61-0.11c0.02-6.4,1.58-12.51,3.51-18.36
		c0.61-1.76,1.31-3.49,2.04-5.2c0.69,0.25,1.38,0.45,2.09,0.56c2.24,0.35,4.44,0.1,6.51-0.35c4.16-0.98,7.94-2.7,11.52-5l0.05-0.03
		l0.07-0.06c2.66-2.25,5.11-4.43,6.93-8.01c0.41-0.92,0.78-2.02,0.76-3.36C281.14,160.13,280.46,158.59,279.5,157.68z
		 M276.09,162.99c-0.91,2.24-3.1,4.7-5.21,6.65c-2.96,2.16-6.41,3.97-9.91,5.01c-2.19,0.63-4.53,0.92-6.58,0.47
		c1.43-2.94,3.05-5.72,4.96-8.18c1.73-2.28,3.73-4.28,5.99-5.49c2.25-1.32,4.64-1.54,7.62-1.19c1.35,0.14,2.63,0.57,3.08,0.95
		c0.21,0.19,0.25,0.21,0.3,0.48C276.37,161.96,276.3,162.45,276.09,162.99z"/>
	<path class="st0" d="M57.43,173.9c-0.27-0.55-0.73-1.17-1.19-1.63c-1.63-1.23-2.83-1.39-3.99-1.68c-0.06-0.01-0.1-0.01-0.16-0.02
		c1.05-0.49,2.1-1.11,3.14-2.11c0.48-0.47,1.02-1.31,1.09-2.31c0.08-1.07-0.45-1.89-0.89-2.43c-0.94-1.1-1.98-1.53-3.02-2.09
		c-4.33-1.77-8.72-1.2-12.76-0.37c-4.06,0.94-7.95,2.32-11.67,4.09l0.25,0.57c1.38-0.52,2.8-0.92,4.21-1.34
		c-0.93,2.98-1.8,5.96-2.55,8.96c-0.83,3.32-1.59,6.65-2.28,9.99l-0.54,2.61l2.95,0.37c4.09,0.52,8.27,0.8,12.56,0.4
		c4.24-0.49,8.79-1.33,12.84-5.04c0.94-1.04,1.85-2.25,2.28-3.91c0.19-0.84,0.27-1.73,0.12-2.66
		C57.75,174.82,57.58,174.35,57.43,173.9z M51.17,177.48c-2,1.72-5.76,2.6-9.35,3.11c-2.86,0.4-5.84,0.55-8.86,0.62
		c0.15-2.39,0.3-4.78,0.37-7.19c0.1-3.22,0.08-6.47-0.01-9.72c2.19-0.6,4.39-1.09,6.61-1.41c3.92-0.51,8.1-0.52,11.29,1.16
		c0.71,0.47,1.56,0.96,1.89,1.5c0.15,0.25,0.19,0.39,0.13,0.36c-0.04,0-0.02,0.12-0.3,0.33c-0.99,0.89-3.03,1.58-4.84,2.08
		c-3.76,1.01-7.8,1.62-11.72,2.04l0.4,4.32c3.87-0.04,7.88,0.05,11.6,0.57c0.92,0.14,1.82,0.31,2.62,0.53
		c0.42,0.1,0.83,0.27,1.12,0.41c-0.02,0.06-0.03,0.1-0.06,0.18C51.96,176.66,51.6,177.07,51.17,177.48z"/>
	<path class="st0" d="M68.78,167.72c-0.41-1.93-0.71-3.86-1.18-5.8l-0.62-0.01c-0.53,1.93-0.88,3.86-1.3,5.8
		c-0.37,1.94-0.68,3.88-0.92,5.83c-0.24,1.95-1.03,3.93-0.49,5.9c0.51,1.93,1.24,4.02,3.32,5.72l0.6-0.15
		c1.34-2.1,1.95-3.89,2.27-5.82c0.38-1.89-0.46-3.78-0.75-5.7C69.44,171.58,69.13,169.65,68.78,167.72z"/>
	<path class="st0" d="M145.55,152.05c-0.19-2-1.58-3.24-2.76-3.9c-1.24-0.68-2.54-0.95-3.81-1.01c-2.54-0.09-4.95,0.77-6.92,2.07
		c-3.34,2.22-5.46,5.41-7.03,8.69c-0.83,0.03-1.67,0.04-2.5,0c-3.75-0.26-7.63-1.17-10.81-3.29l-0.41,0.47
		c3.63,3.01,8.13,4.46,12.78,4.89c-1.54,3.97-2.19,8.11-2.33,12.16c-0.18,8.21,1.18,16.19,3.97,23.73l0.61-0.09
		c0.6-7.98,0.64-15.72,1.6-23.17c0.47-3.71,1.02-7.35,1.98-10.77c0.17-0.64,0.39-1.26,0.62-1.87c1.32-0.12,2.63-0.29,3.91-0.54
		c2.01-0.38,3.92-0.97,5.9-1.59c1.04-0.37,2.09-0.84,3.12-1.63C144.44,155.47,145.68,154.08,145.55,152.05z M141.05,153.31
		c-0.49,0.45-1.21,0.88-1.99,1.23c-1.73,0.68-3.51,1.4-5.33,1.89c-0.6,0.18-1.21,0.32-1.82,0.47c0.81-1.43,1.79-2.69,3-3.64
		c1.21-0.96,2.64-1.56,4.04-1.64c0.69-0.03,1.36,0.08,1.87,0.3c0.53,0.22,0.73,0.53,0.73,0.53
		C141.62,152.43,141.57,152.84,141.05,153.31z"/>
	<path class="st0" d="M168.94,164.53c-0.52-2.72-0.95-5.45-1.55-8.17l-0.62,0.02c-0.39,2.76-0.61,5.51-0.92,8.27
		c-0.26,2.75-0.46,5.51-0.61,8.26c-0.05,0.91-0.16,1.81-0.27,2.72c-1.44-0.59-2.88-0.96-4.33-1.21c-2.42-0.47-4.91,0.41-7.05,0.51
		c-0.48,0.02-0.96-0.03-1.45-0.04c-0.05-0.46-0.1-0.91-0.13-1.37c-0.14-2.64-0.32-5.29-0.54-7.94c-0.28-2.66-0.46-5.31-0.79-7.97
		l-0.62-0.04c-0.65,2.61-1.13,5.23-1.69,7.85c-0.5,2.62-0.94,5.25-1.32,7.89c-0.04,0.31-0.11,0.62-0.17,0.92
		c-2.13-0.53-4.21-1.59-5.8-3.25l-0.55,0.28c0.92,2.49,2.95,4.36,5.17,5.82c0.19,0.12,0.4,0.21,0.59,0.33
		c-0.21,1.27-0.34,2.55-0.15,3.84c0.36,2.66,0.95,5.41,2.79,8.02l0.62-0.04c1.59-2.67,2.32-5.2,2.79-7.82
		c0.11-0.56,0.15-1.12,0.17-1.69c0.22,0.05,0.43,0.11,0.65,0.15c2.69,0.46,5.06,1.19,7.48,0.75c1.37-0.24,2.75-0.58,4.12-1.12
		c0.03,0.55,0.06,1.1,0.17,1.65c0.52,2.72,1.29,5.44,3.1,8.11l0.62-0.02c1.6-2.81,2.16-5.57,2.47-8.33c0.35-2.76-0.57-5.47-0.94-8.2
		C169.82,169.98,169.4,167.25,168.94,164.53z"/>
	<path class="st0" d="M201.45,163.67c-2.66-1.72-5.54-2.69-8.39-3.27c-5.73-1.07-11.43-1.15-17.05-0.48l0.03,0.62
		c4.09,0.23,8.19,0.72,12.11,1.67c-0.76,1.75-1.47,3.52-2.21,5.27c-0.86,2.17-1.67,4.35-2.43,6.55c-0.66,1.88-1.66,3.68-1.99,5.63
		c-0.9-0.23-1.79-0.54-2.64-1.05l-0.51,0.35c0.55,1.41,1.72,2.7,3,3.51c0.06,1.77,0.35,3.59,1.21,5.54l0.6,0.14
		c1.27-1.1,2.17-2.28,2.9-3.49c2.79,0.86,5.71,1.15,8.69,0.97c3.12-0.28,6.43-1.23,9.23-3.68c0.69-0.57,1.27-1.42,1.86-2.14
		c0.52-0.8,0.88-1.77,1.26-2.64c0.2-0.94,0.33-1.9,0.43-2.83c-0.08-0.89-0.19-1.78-0.32-2.66
		C206.48,168.19,204.1,165.34,201.45,163.67z M200.13,177.17c-1.61,1.03-3.84,1.79-6.23,2.3c-1.9,0.42-3.91,0.6-5.94,0.68
		c0.29-1.64,0.2-3.37,0.38-5.03c0.26-2.31,0.46-4.63,0.62-6.95c0.08-1.89,0.2-3.77,0.27-5.66c1.02,0.27,2.04,0.55,3.03,0.89
		c5.07,1.57,9.76,4.85,10.1,9.11C202.61,174.73,201.75,176.17,200.13,177.17z"/>
	<path class="st0" d="M232.5,164.66c-1.49-2.05-3.03-3.92-4.85-5.87l-2.93-3.15l-1.32,3.83c-1.66,4.79-3.27,9.57-4.81,14.4
		c-0.31,1.04-0.6,2.09-0.9,3.13c-0.1,0-0.2,0-0.31,0c-2.18-0.03-4.37-0.22-6.58-0.38l-0.19,0.59c1.97,1.12,4.05,1.96,6.15,2.83
		c0.02,0.01,0.04,0.01,0.06,0.02c-0.1,0.38-0.22,0.75-0.32,1.12c-0.65,2.45-1.3,4.91-1.6,7.48l0.61,0.11
		c0.77-2.35,1.82-4.64,2.82-6.94l0.51-1.08c1.46,0.49,2.94,0.93,4.46,1.26c2.23,0.48,4.56,1.46,6.97,0.85
		c1.42-0.33,2.86-0.89,4.15-1.77c0.89,1.67,1.76,3.38,2.81,5.15l0.61-0.1c0.8-5.02-0.08-10.14-1.83-14.82
		C235.14,168.94,233.96,166.7,232.5,164.66z M229.96,176.65c-1.96-0.33-4.02,0.34-6.14,0.4c-1.06,0.03-2.16-0.02-3.24-0.04
		l0.95-2.02c1.45-3.12,2.98-6.21,4.49-9.3c0.41,0.74,0.82,1.48,1.19,2.21c1.04,2.01,2.12,3.99,3.24,5.96
		c0.61,1.04,1.19,2.13,1.77,3.2C231.46,176.9,230.72,176.76,229.96,176.65z"/>
	<path class="st0" d="M111.19,181.34c-1.67-1.26-3.51-2.19-5.39-2.91c-1.15-0.45-2.31-0.8-3.47-1.12c1.72-0.88,3.39-2,4.92-3.66
		c0.38-0.5,0.78-0.94,1.03-1.62c0.31-0.61,0.52-1.26,0.53-2.01c0.16-1.43-0.41-2.81-1.05-3.76c-1.34-2.03-3.45-3.33-5.47-3.85
		c-4.09-1.08-8.01-0.68-11.8-0.15c-3.48,0.56-6.85,1.43-10.16,2.53c-0.51-2.1-0.97-4.2-1.55-6.3l-0.62,0.04
		c-0.34,2.44-0.5,4.86-0.73,7.3c-0.18,2.43-0.29,4.87-0.33,7.3c-0.04,2.43-0.62,4.94,0.13,7.33c0.72,2.35,1.66,4.84,3.98,6.84
		l0.59-0.19c0.72-1.82,1.13-3.48,1.36-5.13c0.53,0.09,0.47,0.04,0.64,0.06l0.86-0.04c0.06-0.01,0.11-0.02,0.17-0.02l0.08,0
		c0,0,0-0.01,0-0.01c0.08-0.01,0.16-0.03,0.24-0.04c-0.01,0.01-0.02,0.03-0.02,0.04l0.59-0.01l2.71,0l5.46,0.03
		c3.64,0.02,7.26,0.19,10.79,0.65c3.45,0.59,7.11,1.14,9.38,4.04l0.58-0.22C114.34,184.38,112.81,182.61,111.19,181.34z
		 M83.46,175.8l-0.23,0.04c-0.07,0.02,0.01-0.01-0.35,0.08c-0.28-1.07-0.62-2.15-0.84-3.23c-0.48-2.36-0.97-4.72-1.52-7.09
		c-0.01-0.03-0.01-0.06-0.02-0.09c3.38-0.67,6.8-1.14,10.19-1.34c3.66-0.15,7.48-0.04,10.61,1.19c1.6,0.55,2.75,1.58,3.4,2.72
		c0.64,1.27,0.45,1.94-0.47,2.93c-2.04,1.94-5.73,3.1-9.13,3.86c-1.45,0.31-2.93,0.53-4.4,0.71c-0.75-0.03-1.51-0.06-2.26-0.06
		c-0.98,0-1.95,0.05-2.94,0.1l-1.53,0.14L83.46,175.8z M84.02,175.84l-0.1,0C83.92,175.83,83.94,175.83,84.02,175.84z"/>
	<path class="st0" d="M85.13,181.96l-0.22,0C84.6,182.72,84.8,182.58,85.13,181.96z"/>
</g>
</svg>
