<?xml version="1.0" encoding="utf-8"?>
<!-- Generator: Adobe Illustrator 22.1.0, SVG Export Plug-In . SVG Version: 6.00 Build 0)  -->
<svg version="1.1" id="图层_1" xmlns="http://www.w3.org/2000/svg" xmlns:xlink="http://www.w3.org/1999/xlink" x="0px" y="0px"
	 viewBox="0 0 400 400" style="enable-background:new 0 0 400 400;" xml:space="preserve">
<style type="text/css">
	.st0{fill:#F3E6D3;}
	.st1{fill:#EDCEAE;}
	.st2{fill:#F39B51;}
	.st3{fill:none;stroke:#F6EFDD;stroke-linecap:round;stroke-linejoin:round;stroke-miterlimit:10;}
	.st4{fill:#F6EFDD;}
	.st5{fill:#5E2E2A;}
	.st6{fill:#F4AB98;}
	.st7{fill:none;stroke:#5E2E2A;stroke-width:3;stroke-linecap:round;stroke-linejoin:round;stroke-miterlimit:10;}
	.st8{fill:none;stroke:#DB9283;stroke-linecap:round;stroke-linejoin:round;stroke-miterlimit:10;}
	.st9{fill:none;stroke:#EDCEAE;stroke-linecap:round;stroke-linejoin:round;stroke-miterlimit:10;}
</style>
<path class="st0" d="M112.8,263.8c0-0.6,0-1,0-1S112.8,263.2,112.8,263.8c0,0.6,0,1,0,1S112.8,264.4,112.8,263.8z"/>
<g>
	<path class="st1" d="M136.3,295c0-25.5,33.2-46.1,74.1-46.1s74.1,20.6,74.1,46.1"/>
	<path class="st2" d="M114,74.4c-25.9,3.4-8.6,103.6-8.6,103.6l72.1-17.5C177.5,160.6,139.8,71,114,74.4z"/>
	<path class="st3" d="M149.8,108.3c-10-16.5-26.6-35.1-35.9-33.9c-18.4,2.4-15,53.6-11.5,83.1"/>
	<path class="st2" d="M291.2,74.4c25,0,8.6,103.6,8.6,103.6l-72.1-17.5C227.7,160.6,266.1,74.4,291.2,74.4z"/>
	<path class="st3" d="M249.5,118.4c12.8-21.8,29-44,41.7-44c18.4,0,14.4,55.7,11,85.5"/>
	<path class="st4" d="M120.1,161.3c-0.8-2.1-10.2-59.7-3.3-64.7c6.9-5.1,34.1,34.7,35.3,36.5C153.3,134.8,120.1,161.3,120.1,161.3z"
		/>
	<path class="st4" d="M285.8,158.1c0.8-2,14.6-57.6,1.5-63.8c-9.5-4.5-31.3,34.8-32.5,36.6C253.7,132.6,285.8,158.1,285.8,158.1z"/>
	<path class="st4" d="M313.5,235.8c2.9-48.3-37.2-123-109.5-123c-46.3,0-81.4,29.3-98.4,59.9c-9.1,16.3-13.8,34.1-13.8,50.9
		c0,21.3,9.9,33.4,25.3,40.3c19.6,8.7,48.3,9,77,9C245.4,272.9,311.1,275.3,313.5,235.8z"/>
	<path class="st2" d="M195.1,113.2c-1.3,0.1-2.6,0.2-4,0.4c-40,4.8-70.2,31.4-85.6,59.2c-9.1,16.3-13.8,34.1-13.8,50.9c0,0,0,0,0,0
		c0,1,0,1.9,0.1,2.8c0,0.2,0,0.3,0,0.5c0,0.9,0.1,1.8,0.2,2.7c0,0,0,0.1,0,0.1c0.2,1.9,0.5,3.7,0.8,5.5c0,0,0,0,0,0
		c3.7-5.5-0.4-18.5,7.4-20c7.2-2.1,14.5,13.5,32.1,8C192.1,204.7,202.8,138.8,195.1,113.2z"/>
	<path class="st2" d="M283.7,152.1c-0.5-0.6-1-1.2-1.5-1.8c-0.1-0.1-0.2-0.2-0.3-0.3c-0.5-0.6-1-1.1-1.4-1.6
		c-0.1-0.1-0.2-0.3-0.4-0.4c-0.5-0.5-1-1-1.4-1.6c-0.1-0.1-0.3-0.3-0.4-0.4c-0.5-0.5-1-1-1.5-1.5c-0.1-0.1-0.3-0.3-0.4-0.4
		c-0.5-0.5-1-1-1.5-1.5c-0.1-0.1-0.2-0.2-0.3-0.3c-0.6-0.5-1.1-1.1-1.7-1.6c0,0,0,0,0,0c-3.2-3-6.5-5.8-10.1-8.3
		c-0.1,0-0.1-0.1-0.2-0.1c-0.6-0.5-1.3-0.9-1.9-1.4c-0.1-0.1-0.2-0.1-0.3-0.2c-0.6-0.4-1.3-0.9-1.9-1.3c-0.1-0.1-0.2-0.2-0.3-0.2
		c-0.7-0.4-1.3-0.8-2-1.3c-0.1-0.1-0.2-0.1-0.3-0.2c-0.7-0.4-1.4-0.8-2.1-1.3c0,0-0.1-0.1-0.1-0.1c-5.4-3.1-11.1-5.8-17.1-7.9
		c0,0,0,0,0,0c-0.8-0.3-1.7-0.6-2.6-0.9c0,0-0.1,0-0.1,0c-0.9-0.3-1.7-0.5-2.6-0.8c0,0-0.1,0-0.1,0c-7.1-2-14.7-3.3-22.7-3.6
		c-1.8,6.6-1.1,32.3,7,52.6c10.8,27.1,41.3,48.3,66.8,56.3c9.5,3,16-11,23.5-4.7c13.1,11.1-9.6,44-16,47c-0.1,0,0,0.1,0.1,0.1
		c0,0,0,0,0,0c0.7-0.3,1.3-0.5,1.9-0.8c0,0,0.1,0,0.1-0.1c0.6-0.2,1.1-0.5,1.7-0.8c0.1-0.1,0.3-0.1,0.4-0.2c0.4-0.2,0.9-0.4,1.3-0.7
		c0.2-0.1,0.3-0.2,0.5-0.3c0.4-0.2,0.8-0.4,1.2-0.7c0.2-0.1,0.3-0.2,0.5-0.3c0.4-0.2,0.8-0.5,1.2-0.7c0.1-0.1,0.3-0.2,0.4-0.3
		c0.4-0.3,0.8-0.5,1.2-0.8c0.1-0.1,0.2-0.2,0.3-0.2c0.4-0.3,0.8-0.6,1.2-0.9c0.1-0.1,0.1-0.1,0.2-0.2c0.5-0.4,0.9-0.7,1.4-1.1
		c0,0,0,0,0,0c2.3-2,4.2-4.2,5.8-6.7c0,0,0,0,0-0.1c0.3-0.5,0.6-1,0.8-1.5c0,0,0-0.1,0.1-0.1c0.3-0.5,0.5-1,0.7-1.5c0,0,0-0.1,0-0.1
		c0.2-0.5,0.5-1.1,0.7-1.6c0,0,0,0,0,0c0.1-0.4,0.3-0.7,0.4-1.1c0,0,0-0.1,0-0.1c0,0,0,0,0-0.1c0,0,0,0,0,0c0.8-2.4,1.3-5,1.4-7.7
		c1.5-25.1-8.6-57.3-28.7-82.4C284.4,152.9,284.1,152.5,283.7,152.1z"/>
	<path class="st0" d="M204.5,191.1c-40,0-85.7,74.3-85.7,74.3c64.3,18.9,118.5,16.3,172-0.7C290.8,264.8,248,191.1,204.5,191.1z"/>
	<path class="st5" d="M186.5,184.3c1.5-10.4,34.6-12.4,35.4,1.7c0.4,6.9-8.3,13.9-17.5,14.2C193.9,200.4,185.5,190.8,186.5,184.3z"
		/>
	<path class="st6" d="M190.8,208.3c2.6,3.2,14.5-3,12-6.8c2.7,4.3,9.3,7.1,15,7.5c0,0-1.8,16.3-13.5,16.3
		C192.7,225.3,190.8,208.3,190.8,208.3z"/>
	<path class="st7" d="M180.5,206.1c5.8,3.7,22.3,4.3,23.8-7.3"/>
	<path class="st7" d="M227.5,206.5c-5.8,3.7-21,4.5-22.6-7.1"/>
	<path class="st4" d="M160.4,287c0-9.1-13.9-26-31.2-26s-31.2,16.9-31.2,26c0,9.1,13.9,6.9,31.2,6.9S160.4,296.1,160.4,287z"/>
	<path class="st4" d="M309.7,285.9c0-9.1-13.9-26-31.2-26s-31.2,16.9-31.2,26c0,9.1,13.9,6.9,31.2,6.9S309.7,295,309.7,285.9z"/>
	<path class="st0" d="M160.4,290c0-3.6-13.9-10.2-31.2-10.2s-31.2,6.7-31.2,10.2c0,3.6,13.9,2.7,31.2,2.7S160.4,293.5,160.4,290z"/>
	<path class="st0" d="M309.7,289.5c0-3.6-13.9-10.2-31.2-10.2s-31.2,6.7-31.2,10.2s13.9,2.7,31.2,2.7S309.7,293.1,309.7,289.5z"/>
</g>
<path class="st4" d="M228,168c-2.5-2.5,4.9-11.3,12.1-9.6c7.2,1.7,4.3,12.5-2.8,11.4C230.2,168.6,230.5,170.5,228,168z"/>
<path class="st4" d="M178.1,168.2c2.2-3.4-2.6-12-10.1-11.7c-7.4,0.3-6.6,11.5,0.6,11.7S175.9,171.7,178.1,168.2z"/>
<path class="st5" d="M233.1,184c0,0,22.2-13.1,32.8-4.4C276.3,188.3,233.1,184,233.1,184z"/>
<path class="st5" d="M173.2,183.7c0-1.3-22.2-11.8-32.8-3.2C130.9,188.3,173.2,183.7,173.2,183.7z"/>
<line class="st8" x1="203.8" y1="213.3" x2="203.8" y2="223.8"/>
<path class="st9" d="M118.2,256.5c-1.6,2-2.5,13.6-0.3,13.3"/>
<path class="st9" d="M137.9,256.3c3.2,1.7,2,13.4-0.3,13.3"/>
<path class="st9" d="M288.8,284.2c2.1,1.7,2.6,13.4,0.3,13.3"/>
<path class="st9" d="M270.6,284.3c-2.9,2.4-1.8,14,0.3,13.3"/>
</svg>
