<?xml version="1.0" standalone="no"?><!DOCTYPE svg PUBLIC "-//W3C//DTD SVG 1.1//EN" "http://www.w3.org/Graphics/SVG/1.1/DTD/svg11.dtd"><svg t="1701837736540" class="icon" viewBox="0 0 1159 1024" version="1.1" xmlns="http://www.w3.org/2000/svg" p-id="6884" xmlns:xlink="http://www.w3.org/1999/xlink" width="22.63671875" height="20"><path d="M538.281339 996.148794c-20.559689-15.379922-229.583191-175.474553-355.092919-329.672218-13.865837-17.053385-11.315798-42.155331 5.737588-56.021167 17.133074-13.945525 42.235019-11.315798 56.021167 5.737587 121.684669 149.496031 335.250428 311.981323 344.334942 318.754864 8.606381 7.650117 17.850272 7.729805 23.58786 2.390661 5.737588-4.542257 281.699611-213.167315 388.323112-376.847937 36.417743-56.021167 77.696498-119.533074 77.696499-209.820389 0-149.416342-112.361089-270.941634-250.541323-270.941635-75.465214 0-146.149105 36.338054-194.042024 99.690584l-31.795797 42.075642-31.795798-42.075642c-47.81323-63.352529-118.497121-99.690584-193.962335-99.690584-138.180233 0-250.541323 121.525292-250.541323 270.941635 0 12.989261 0.796887 25.4207 2.390662 37.294319 2.868794 21.834708-12.511128 41.836576-34.266148 44.705369-22.31284 2.789105-41.836576-12.511128-44.70537-34.266148-2.071907-15.220545-3.10786-31.158288-3.10786-47.73354 0-193.324825 148.141323-350.63035 330.230039-350.630351 84.868482 0 164.955642 34.027082 225.758133 94.749884C663.392623 34.066926 743.479782 0.039844 828.348265 0.039844c182.088716 0 330.230039 157.305525 330.230039 350.630351 0 113.954864-52.275798 194.440467-90.526382 253.17105-114.273619 175.474553-392.466926 385.852763-404.260856 394.69821-16.256498 14.981479-38.011518 22.631595-60.324358 22.631596-23.189416 0-46.777276-8.287626-65.185369-25.022257z" fill="#999999" p-id="6885"></path><path d="M566.961307 719.182693c-10.200156 0-20.400311-3.904747-28.209805-11.634553-15.5393-15.618988-15.5393-40.800623 0-56.419611l138.4193-138.339611-138.4193-138.419299c-15.5393-15.5393-15.5393-40.800623 0-56.339923 15.618988-15.5393 40.800623-15.5393 56.419611 0l166.549416 166.549417c15.5393 15.5393 15.5393 40.800623 0 56.339922l-166.549416 166.629105a40.019673 40.019673 0 0 1-28.209806 11.634553" fill="#999999" p-id="6886"></path><path d="M684.008093 552.880311H39.884202c-22.073774 0-39.844358-17.850272-39.844358-39.844358s17.770584-39.844358 39.844358-39.844358h644.123891c21.994086 0 39.844358 17.850272 39.844358 39.844358s-17.850272 39.844358-39.844358 39.844358" fill="#999999" p-id="6887"></path></svg>